<svg width="44" height="44" viewBox="0 0 44 44" fill="none" xmlns="http://www.w3.org/2000/svg">
<rect width="44" height="44" rx="22" transform="matrix(-1 0 0 1 44 0)" fill="#FAFAFC"/>
<path d="M21.9987 7.83337C19.1968 7.83337 16.4578 8.66423 14.1281 10.2209C11.7984 11.7775 9.98265 13.9901 8.91041 16.5787C7.83817 19.1673 7.55762 22.0158 8.10425 24.7638C8.65087 27.5119 10.0001 30.0361 11.9814 32.0174C13.9626 33.9986 16.4869 35.3479 19.2349 35.8945C21.983 36.4411 24.8314 36.1606 27.4201 35.0883C30.0087 34.0161 32.2212 32.2003 33.7779 29.8706C35.3345 27.5409 36.1654 24.8019 36.1654 22C36.1654 20.1396 35.7989 18.2975 35.087 16.5787C34.3751 14.8599 33.3315 13.2982 32.016 11.9827C30.7006 10.6672 29.1388 9.62369 27.4201 8.91175C25.7013 8.19981 23.8591 7.83337 21.9987 7.83337ZM21.9987 33.3334C19.7572 33.3334 17.566 32.6687 15.7022 31.4234C13.8385 30.178 12.3859 28.408 11.5281 26.3371C10.6703 24.2662 10.4458 21.9875 10.8831 19.789C11.3204 17.5906 12.3998 15.5712 13.9848 13.9862C15.5698 12.4012 17.5892 11.3218 19.7877 10.8845C21.9861 10.4472 24.2649 10.6716 26.3358 11.5294C28.4067 12.3872 30.1767 13.8398 31.422 15.7036C32.6673 17.5673 33.332 19.7585 33.332 22C33.332 25.0058 32.138 27.8885 30.0126 30.0139C27.8872 32.1393 25.0045 33.3334 21.9987 33.3334ZM27.6654 20.5834H23.4154V16.3334C23.4154 15.9577 23.2661 15.5973 23.0004 15.3316C22.7348 15.066 22.3744 14.9167 21.9987 14.9167C21.623 14.9167 21.2626 15.066 20.997 15.3316C20.7313 15.5973 20.582 15.9577 20.582 16.3334V20.5834H16.332C15.9563 20.5834 15.596 20.7326 15.3303 20.9983C15.0646 21.264 14.9154 21.6243 14.9154 22C14.9154 22.3758 15.0646 22.7361 15.3303 23.0018C15.596 23.2675 15.9563 23.4167 16.332 23.4167H20.582V27.6667C20.582 28.0424 20.7313 28.4028 20.997 28.6684C21.2626 28.9341 21.623 29.0834 21.9987 29.0834C22.3744 29.0834 22.7348 28.9341 23.0004 28.6684C23.2661 28.4028 23.4154 28.0424 23.4154 27.6667V23.4167H27.6654C28.0411 23.4167 28.4014 23.2675 28.6671 23.0018C28.9328 22.7361 29.082 22.3758 29.082 22C29.082 21.6243 28.9328 21.264 28.6671 20.9983C28.4014 20.7326 28.0411 20.5834 27.6654 20.5834Z" fill="#5C5C5C"/>
</svg>
