<svg width="135" height="135" viewBox="0 0 135 135" fill="none" xmlns="http://www.w3.org/2000/svg">
<rect width="135" height="135" rx="22.8814" fill="url(#paint0_linear_33_59)"/>
<path d="M61.8942 106.17L60.7934 95.0826C60.475 91.8759 58.7923 88.9613 56.1745 87.0822L41.3866 76.4671C39.0011 74.7548 35.7057 75.132 33.7689 77.3391V77.3391M61.8942 106.17H43.4748M61.8942 106.17V106.17C63.6002 106.17 64.9832 107.553 64.9832 109.259V112.119C64.9832 115.404 62.3197 118.068 59.0341 118.068H46.3349C43.0493 118.068 40.3858 115.404 40.3858 112.119V109.259C40.3858 107.553 41.7688 106.17 43.4748 106.17V106.17M41.8731 87.2925L33.9964 80.541C33.0423 79.7232 32.94 78.2836 33.7689 77.3391V77.3391M43.4748 106.17L42.9656 105.006C42.2477 103.365 41.1471 101.92 39.7559 100.792L27.2601 90.6578C24.635 88.5289 23.1104 85.3294 23.1104 81.9496V57.2765C23.1104 55.8461 24.2699 54.6865 25.7003 54.6865V54.6865C26.8721 54.6865 27.8979 55.4732 28.2017 56.6049L33.7689 77.3391" stroke="white" stroke-width="3.4322" stroke-linecap="round"/>
<path d="M72.8772 106.17L73.9781 95.0826C74.2965 91.8759 75.9792 88.9613 78.597 87.0822L93.3849 76.4671C95.7703 74.7548 99.0658 75.132 101.003 77.3391V77.3391M72.8772 106.17H91.2967M72.8772 106.17V106.17C71.1712 106.17 69.7883 107.553 69.7883 109.259V112.119C69.7883 115.404 72.4518 118.068 75.7374 118.068H88.4366C91.7222 118.068 94.3857 115.404 94.3857 112.119V109.259C94.3857 107.553 93.0027 106.17 91.2967 106.17V106.17M92.8984 87.2925L100.775 80.541C101.729 79.7232 101.831 78.2836 101.003 77.3391V77.3391M91.2967 106.17L91.8059 105.006C92.5238 103.365 93.6244 101.92 95.0156 100.792L107.511 90.6578C110.136 88.5289 111.661 85.3294 111.661 81.9496V57.2765C111.661 55.8461 110.502 54.6865 109.071 54.6865V54.6865C107.899 54.6865 106.874 55.4732 106.57 56.6049L101.003 77.3391" stroke="white" stroke-width="3.4322" stroke-linecap="round"/>
<path d="M67.3857 72.1907L42.6738 47.4788C36.6712 41.4763 36.6712 31.7442 42.6738 25.7416V25.7416C48.6764 19.739 58.4085 19.739 64.4111 25.7416L67.3857 28.7161" stroke="white" stroke-width="3.4322" stroke-linecap="round"/>
<path d="M67.5001 72.3052L92.2119 47.5933C98.2145 41.5908 98.2145 31.8587 92.2119 25.8561V25.8561C86.2093 19.8535 76.4772 19.8535 70.4746 25.8561L67.5001 28.8306" stroke="white" stroke-width="3.4322" stroke-linecap="round"/>
<defs>
<linearGradient id="paint0_linear_33_59" x1="67.5" y1="0" x2="67.5" y2="135" gradientUnits="userSpaceOnUse">
<stop stop-color="#FC693B"/>
<stop offset="1" stop-color="#FF4B6B"/>
</linearGradient>
</defs>
</svg>
