<svg width="112" height="112" viewBox="0 0 112 112" fill="none" xmlns="http://www.w3.org/2000/svg">
<path d="M93.1029 8.52777L103.452 18.8765C108.161 23.5862 108.161 31.2223 103.452 35.932L83.394 55.9897L103.452 76.0474C108.161 80.7572 108.161 88.3932 103.452 93.1029L93.1029 103.452C88.3932 108.161 80.7572 108.161 76.0474 103.452L55.9897 83.394L35.932 103.452C31.2223 108.161 23.5862 108.161 18.8765 103.452L8.52777 93.1029C3.81801 88.3932 3.81802 80.7572 8.52777 76.0474L28.5855 55.9897L8.52777 35.932C3.81801 31.2223 3.81801 23.5862 8.52777 18.8765L18.8765 8.52777C23.5862 3.81801 31.2223 3.81802 35.932 8.52777L55.9897 28.5855L76.0474 8.52777C80.7572 3.81801 88.3932 3.81801 93.1029 8.52777Z" fill="white"/>
<path d="M83.394 55.9897L103.452 35.932C108.161 31.2223 108.161 23.5862 103.452 18.8765L93.1029 8.52777C88.3932 3.81801 80.7572 3.81801 76.0474 8.52777L55.9897 28.5855M83.394 55.9897L103.452 76.0474C108.161 80.7572 108.161 88.3932 103.452 93.1029L93.1029 103.452C88.3932 108.161 80.7572 108.161 76.0474 103.452L55.9897 83.394M83.394 55.9897L55.9897 83.394M55.9897 28.5855L35.932 8.52777C31.2223 3.81802 23.5862 3.81801 18.8765 8.52777L8.52777 18.8765C3.81801 23.5862 3.81801 31.2223 8.52777 35.932L28.5855 55.9897M55.9897 28.5855L28.5855 55.9897M28.5855 55.9897L8.52777 76.0474C3.81802 80.7572 3.81801 88.3932 8.52777 93.1029L18.8765 103.452C23.5862 108.161 31.2223 108.161 35.932 103.452L55.9897 83.394M82.796 69.0938V69.0938C82.323 69.5668 82.323 70.3336 82.796 70.8066L82.8698 70.8804C83.3428 71.3534 84.1096 71.3534 84.5826 70.8804V70.8804M82.796 69.0938V69.0938C83.2689 68.6209 84.0358 68.6209 84.5087 69.0938L84.5826 69.1677C85.0555 69.6406 85.0555 70.4075 84.5826 70.8804V70.8804M82.796 69.0938L84.5826 70.8804M89.9423 76.2402V76.2402C89.4694 76.7132 89.4694 77.48 89.9423 77.953L90.0162 78.0268C90.4891 78.4998 91.256 78.4998 91.7289 78.0268V78.0268M89.9423 76.2402V76.2402C90.4153 75.7672 91.1821 75.7672 91.6551 76.2402L91.7289 76.3141C92.2019 76.787 92.2019 77.5538 91.7289 78.0268V78.0268M89.9423 76.2402L91.7289 78.0268M97.0887 83.3866V83.3866C96.6157 83.8595 96.6157 84.6264 97.0887 85.0993L97.1625 85.1732C97.6355 85.6461 98.4023 85.6461 98.8753 85.1732V85.1732M97.0887 83.3866V83.3866C97.5617 82.9136 98.3285 82.9136 98.8015 83.3866L98.8753 83.4604C99.3483 83.9334 99.3483 84.7002 98.8753 85.1732V85.1732M97.0887 83.3866L98.8753 85.1732M77.7315 77.7315V77.7315C77.2585 78.2045 76.4917 78.2045 76.0187 77.7315L75.9449 77.6577C75.4719 77.1847 75.4719 76.4179 75.9449 75.9449V75.9449M77.7315 77.7315V77.7315C78.2045 77.2585 78.2045 76.4917 77.7315 76.0187L77.6577 75.9449C77.1847 75.4719 76.4179 75.4719 75.9449 75.9449V75.9449M77.7315 77.7315L75.9449 75.9449M83.0913 83.0913V83.0913C82.6183 83.5642 82.6183 84.3311 83.0913 84.804L83.1651 84.8778C83.6381 85.3508 84.4049 85.3508 84.8779 84.8778V84.8778M83.0913 83.0913V83.0913C83.5642 82.6183 84.3311 82.6183 84.804 83.0913L84.8779 83.1651C85.3508 83.6381 85.3508 84.4049 84.8779 84.8778V84.8778M83.0913 83.0913L84.8779 84.8778M90.2376 90.2376V90.2376C89.7647 90.7106 89.7647 91.4774 90.2376 91.9504L90.3115 92.0242C90.7844 92.4972 91.5513 92.4972 92.0242 92.0242V92.0242M90.2376 90.2376V90.2376C90.7106 89.7647 91.4774 89.7647 91.9504 90.2376L92.0242 90.3115C92.4972 90.7844 92.4972 91.5513 92.0242 92.0242V92.0242M90.2376 90.2376L92.0242 92.0242M83.3866 97.0887V97.0887C82.9136 97.5617 82.9136 98.3285 83.3866 98.8015L83.4604 98.8753C83.9334 99.3483 84.7002 99.3483 85.1732 98.8753V98.8753M83.3866 97.0887V97.0887C83.8595 96.6157 84.6264 96.6157 85.0993 97.0887L85.1732 97.1625C85.6461 97.6355 85.6461 98.4023 85.1732 98.8753V98.8753M83.3866 97.0887L85.1732 98.8753M76.2402 89.9423V89.9423C76.7132 89.4694 77.48 89.4694 77.953 89.9423L78.0268 90.0162C78.4998 90.4891 78.4998 91.256 78.0268 91.7289V91.7289M76.2402 89.9423V89.9423C75.7672 90.4153 75.7672 91.1821 76.2402 91.6551L76.314 91.7289C76.787 92.2019 77.5538 92.2019 78.0268 91.7289V91.7289M76.2402 89.9423L78.0268 91.7289M69.0938 82.796V82.796C68.6209 83.2689 68.6209 84.0358 69.0938 84.5087L69.1677 84.5826C69.6406 85.0555 70.4075 85.0555 70.8804 84.5826V84.5826M69.0938 82.796V82.796C69.5668 82.323 70.3336 82.323 70.8066 82.796L70.8804 82.8698C71.3534 83.3428 71.3534 84.1096 70.8804 84.5826V84.5826M69.0938 82.796L70.8804 84.5826M26.8063 13.1041V13.1041C26.3333 13.5771 26.3333 14.3439 26.8063 14.8169L26.8801 14.8907C27.353 15.3637 28.1199 15.3637 28.5928 14.8907V14.8907M26.8063 13.1041V13.1041C27.2792 12.6312 28.0461 12.6312 28.519 13.1041L28.5928 13.178C29.0658 13.6509 29.0658 14.4178 28.5928 14.8907V14.8907M26.8063 13.1041L28.5928 14.8907M33.9526 20.2505V20.2505C33.4797 20.7235 33.4797 21.4903 33.9526 21.9633L34.0264 22.0371C34.4994 22.5101 35.2662 22.5101 35.7392 22.0371V22.0371M33.9526 20.2505V20.2505C34.4256 19.7775 35.1924 19.7775 35.6654 20.2505L35.7392 20.3243C36.2122 20.7973 36.2122 21.5641 35.7392 22.0371V22.0371M33.9526 20.2505L35.7392 22.0371M41.099 27.3969V27.3969C41.572 26.9239 42.3388 26.9239 42.8118 27.3969L42.8856 27.4707C43.3585 27.9437 43.3585 28.7105 42.8856 29.1835V29.1835M41.099 27.3969V27.3969C40.626 27.8698 40.626 28.6367 41.099 29.1096L41.1728 29.1835C41.6458 29.6564 42.4126 29.6564 42.8856 29.1835V29.1835M41.099 27.3969L42.8856 29.1835M34.2827 34.2827V34.2827C33.8097 34.7556 33.8097 35.5225 34.2827 35.9954L34.3218 36.0345C34.7947 36.5075 35.5616 36.5075 36.0345 36.0345V36.0345M34.2827 34.2827V34.2827C34.7556 33.8097 35.5225 33.8097 35.9954 34.2827L36.0345 34.3218C36.5075 34.7947 36.5075 35.5616 36.0345 36.0345V36.0345M34.2827 34.2827L36.0345 36.0345M27.1016 27.1016V27.1016C26.6286 27.5745 26.6286 28.3414 27.1016 28.8143L27.1754 28.8882C27.6484 29.3611 28.4152 29.3611 28.8882 28.8882V28.8882M27.1016 27.1016V27.1016C27.5745 26.6286 28.3414 26.6286 28.8143 27.1016L28.8882 27.1754C29.3611 27.6484 29.3611 28.4152 28.8882 28.8882V28.8882M27.1016 27.1016L28.8882 28.8882M20.2505 33.9526V33.9526C19.7775 34.4256 19.7775 35.1924 20.2505 35.6654L20.3243 35.7392C20.7973 36.2122 21.5641 36.2122 22.0371 35.7392V35.7392M20.2505 33.9526V33.9526C20.7235 33.4797 21.4903 33.4797 21.9633 33.9526L22.0371 34.0264C22.5101 34.4994 22.5101 35.2662 22.0371 35.7392V35.7392M20.2505 33.9526L22.0371 35.7392M13.1041 26.8063V26.8063C13.5771 26.3333 14.3439 26.3333 14.8169 26.8063L14.8907 26.8801C15.3637 27.353 15.3637 28.1199 14.8907 28.5928V28.5928M13.1041 26.8063V26.8063C12.6312 27.2792 12.6312 28.0461 13.1041 28.519L13.178 28.5928C13.6509 29.0658 14.4178 29.0658 14.8907 28.5928V28.5928M13.1041 26.8063L14.8907 28.5928M27.3969 41.099V41.099C27.8698 40.626 28.6367 40.626 29.1096 41.099L29.1835 41.1728C29.6564 41.6458 29.6564 42.4126 29.1835 42.8856V42.8856M27.3969 41.099V41.099C26.9239 41.572 26.9239 42.3388 27.3969 42.8118L27.4707 42.8856C27.9437 43.3585 28.7105 43.3585 29.1835 42.8856V42.8856M27.3969 41.099L29.1835 42.8856M19.9552 19.9552V19.9552C19.4822 20.4282 19.4822 21.195 19.9552 21.668L20.029 21.7418C20.502 22.2148 21.2688 22.2148 21.7418 21.7418V21.7418M19.9552 19.9552V19.9552C20.4282 19.4822 21.195 19.4822 21.668 19.9552L21.7418 20.029C22.2148 20.502 22.2148 21.2688 21.7418 21.7418V21.7418M19.9552 19.9552L21.7418 21.7418M40.5388 50.8875L50.8875 40.5388C55.5972 35.829 63.2333 35.829 67.943 40.5388L71.4407 44.0364C76.1504 48.7462 76.1504 56.3822 71.4407 61.0919L61.0919 71.4407C56.3822 76.1504 48.7462 76.1504 44.0364 71.4407L40.5388 67.943C35.829 63.2333 35.829 55.5972 40.5388 50.8875Z" stroke="#1045FF" stroke-width="3.81748" stroke-linecap="round"/>
<path d="M47.4355 61.1379L48.8612 62.5636M61.1377 47.4358L62.5633 48.8615M54.5081 61.3594H54.5493C56.2624 61.3594 57.9051 60.6792 59.1165 59.4678C59.2299 59.3544 59.3468 59.2375 59.4668 59.1175C60.6781 57.9061 61.3591 56.2627 61.3591 54.5495V54.5083" stroke="#1045FF" stroke-width="3.81748" stroke-linecap="round"/>
</svg>
