<svg width="590" height="590" viewBox="0 0 590 590" fill="none" xmlns="http://www.w3.org/2000/svg">
<rect width="590" height="590" rx="100" fill="url(#paint0_linear_171_112)"/>
<path d="M407.574 295L495.301 207.272C511.704 190.87 511.704 164.277 495.302 147.875L442.125 94.6985C425.723 78.2964 399.13 78.2965 382.728 94.6985L295 182.426M407.574 295L495.302 382.728C511.704 399.13 511.704 425.723 495.302 442.125L442.125 495.302C425.723 511.704 399.13 511.704 382.728 495.301L295 407.574M407.574 295L295 407.574M295 182.426L207.272 94.6985C190.87 78.2965 164.277 78.2964 147.875 94.6985L94.6985 147.875C78.2965 164.277 78.2965 190.87 94.6985 207.272L182.426 295M295 182.426L182.426 295M182.426 295L94.6985 382.728C78.2965 399.13 78.2965 425.723 94.6985 442.125L147.875 495.302C164.277 511.704 190.87 511.704 207.272 495.302L295 407.574M345.767 416.126L345.161 415.52C341.275 411.634 341.275 405.334 345.161 401.448V401.448C349.047 397.562 355.347 397.562 359.233 401.448L359.839 402.054C363.725 405.94 363.725 412.24 359.839 416.126V416.126C355.953 420.012 349.653 420.012 345.767 416.126ZM401.448 345.161V345.161C405.334 341.275 411.634 341.275 415.52 345.161L416.126 345.767C420.012 349.653 420.012 355.953 416.126 359.839V359.839C412.24 363.725 405.94 363.725 402.054 359.839L401.448 359.233C397.562 355.347 397.562 349.047 401.448 345.161ZM474.233 403.874L474.839 404.48C478.725 408.366 478.725 414.666 474.839 418.552V418.552C470.953 422.438 464.653 422.438 460.767 418.552L460.161 417.946C456.275 414.06 456.275 407.76 460.161 403.874V403.874C464.047 399.988 470.347 399.988 474.233 403.874ZM418.552 460.767L417.946 460.161C414.06 456.275 407.76 456.275 403.874 460.161V460.161C399.988 464.047 399.988 470.347 403.874 474.233L404.48 474.839C408.366 478.725 414.666 478.725 418.552 474.839V474.839C422.438 470.953 422.438 464.653 418.552 460.767ZM375.124 445.483L374.517 444.876C370.632 440.99 370.632 434.69 374.517 430.804V430.804C378.403 426.919 384.703 426.919 388.589 430.804L389.196 431.411C393.081 435.297 393.081 441.597 389.196 445.483V445.483C385.31 449.368 379.01 449.368 375.124 445.483ZM444.876 374.517L445.483 375.124C449.368 379.01 449.368 385.31 445.483 389.196V389.196C441.597 393.081 435.297 393.081 431.411 389.196L430.804 388.589C426.919 384.703 426.919 378.403 430.804 374.517V374.517C434.69 370.632 440.99 370.632 444.876 374.517ZM417.339 403.267L416.733 402.661C412.847 398.775 406.547 398.775 402.661 402.661V402.661C398.775 406.547 398.775 412.847 402.661 416.733L403.267 417.339C407.153 421.225 413.453 421.225 417.339 417.339V417.339C421.225 413.453 421.225 407.153 417.339 403.267ZM115.161 171.448V171.448C119.047 167.562 125.347 167.562 129.233 171.448L129.839 172.054C133.725 175.94 133.725 182.24 129.839 186.126V186.126C125.953 190.012 119.653 190.012 115.767 186.126L115.161 185.52C111.275 181.634 111.275 175.334 115.161 171.448ZM186.126 115.767L185.52 115.161C181.634 111.275 175.334 111.275 171.448 115.161V115.161C167.562 119.047 167.562 125.347 171.448 129.233L172.054 129.839C175.94 133.725 182.24 133.725 186.126 129.839V129.839C190.012 125.953 190.012 119.653 186.126 115.767ZM216.696 202.624L216.089 202.017C212.203 198.132 205.903 198.132 202.017 202.017V202.017C198.132 205.903 198.132 212.203 202.017 216.089L202.624 216.696C206.51 220.581 212.81 220.581 216.696 216.696V216.696C220.581 212.81 220.581 206.51 216.696 202.624ZM186.733 172.661L187.339 173.267C191.225 177.153 191.225 183.453 187.339 187.339V187.339C183.453 191.225 177.153 191.225 173.267 187.339L172.661 186.733C168.775 182.847 168.775 176.547 172.661 172.661V172.661C176.547 168.775 182.847 168.775 186.733 172.661ZM226.196 279.373L279.373 226.196C295.775 209.794 322.368 209.794 338.77 226.196L363.804 251.23C380.206 267.632 380.206 294.225 363.804 310.627L310.627 363.804C294.225 380.206 267.632 380.206 251.23 363.804L226.196 338.77C209.794 322.368 209.794 295.775 226.196 279.373Z" stroke="#313131" stroke-width="15" stroke-linecap="round"/>
<path d="M259.861 316.148L265.718 322.005L268.646 324.933M316.148 259.861L322.005 265.718L324.933 268.646M288.915 317.058H289.048C296.109 317.058 302.878 314.255 307.87 309.263C308.321 308.812 308.784 308.349 309.259 307.874C314.252 302.881 317.058 296.109 317.058 289.048V288.915" stroke="#313131" stroke-width="15" stroke-linecap="round"/>
<defs>
<linearGradient id="paint0_linear_171_112" x1="295" y1="0" x2="295" y2="590" gradientUnits="userSpaceOnUse">
<stop stop-color="#FF4C6C"/>
<stop offset="1" stop-color="#FF794F"/>
</linearGradient>
</defs>
</svg>
