<svg width="13" height="13" viewBox="0 0 13 13" fill="none" xmlns="http://www.w3.org/2000/svg">
<path d="M10.8046 6.35177L2.49048 1.6951C2.42044 1.65641 2.34029 1.63997 2.26068 1.64797C2.18107 1.65597 2.10579 1.68803 2.04485 1.73987C1.98392 1.79172 1.94022 1.8609 1.91958 1.9382C1.89894 2.0155 1.90233 2.09726 1.92931 2.17258L3.49466 6.56344C3.52915 6.64869 3.52915 6.744 3.49466 6.82925L1.92931 11.2201C1.90233 11.2954 1.89894 11.3772 1.91958 11.4545C1.94022 11.5318 1.98392 11.601 2.04485 11.6528C2.10579 11.7047 2.18107 11.7367 2.26068 11.7447C2.34029 11.7527 2.42044 11.7363 2.49048 11.6976L10.8046 7.04092C10.8661 7.00686 10.9174 6.95694 10.9531 6.89635C10.9889 6.83575 11.0077 6.76669 11.0077 6.69634C11.0077 6.626 10.9889 6.55694 10.9531 6.49634C10.9174 6.43575 10.8661 6.38583 10.8046 6.35177V6.35177Z" stroke="white" stroke-width="0.787598" stroke-linecap="round" stroke-linejoin="round"/>
<path d="M3.54395 6.69629H6.69434" stroke="white" stroke-width="0.787598" stroke-linecap="round" stroke-linejoin="round"/>
</svg>
