<svg width="30" height="31" viewBox="0 0 30 31" fill="none" xmlns="http://www.w3.org/2000/svg">
<path d="M27.4988 21.6501V25.4001C27.5002 25.7482 27.4289 26.0928 27.2895 26.4118C27.15 26.7308 26.9454 27.0171 26.6889 27.2525C26.4324 27.4878 26.1295 27.667 25.7998 27.7785C25.47 27.89 25.1205 27.9315 24.7738 27.9001C20.9274 27.4822 17.2326 26.1678 13.9863 24.0626C10.9661 22.1435 8.40549 19.5828 6.48632 16.5626C4.37379 13.3016 3.05912 9.58886 2.64882 5.72512C2.61758 5.37945 2.65866 5.03107 2.76944 4.70215C2.88023 4.37323 3.05828 4.07098 3.29228 3.81465C3.52627 3.55831 3.81107 3.35351 4.12856 3.21327C4.44604 3.07304 4.78924 3.00045 5.13632 3.00012H8.88632C9.49295 2.99415 10.0811 3.20897 10.541 3.60454C11.001 4.0001 11.3014 4.54943 11.3863 5.15012C11.5446 6.3502 11.8381 7.52853 12.2613 8.66262C12.4295 9.11003 12.4659 9.59626 12.3662 10.0637C12.2665 10.5312 12.0349 10.9603 11.6988 11.3001L10.1113 12.8876C11.8908 16.0171 14.4819 18.6082 17.6113 20.3876L19.1988 18.8001C19.5387 18.464 19.9678 18.2324 20.4352 18.1327C20.9027 18.033 21.3889 18.0694 21.8363 18.2376C22.9704 18.6608 24.1487 18.9543 25.3488 19.1126C25.956 19.1983 26.5106 19.5041 26.907 19.972C27.3034 20.4399 27.514 21.0371 27.4988 21.6501Z" stroke="#707070" stroke-width="2.5" stroke-linecap="round" stroke-linejoin="round"/>
</svg>
