<svg width="30" height="30" viewBox="0 0 30 30" fill="none" xmlns="http://www.w3.org/2000/svg">
<path d="M26.3485 16.9583C26.0277 16.9583 25.6923 16.8562 25.3714 16.7833C24.7217 16.6401 24.0832 16.45 23.461 16.2145C22.7845 15.9684 22.0408 15.9812 21.3731 16.2504C20.7054 16.5196 20.1609 17.0263 19.8443 17.6729L19.5235 18.3291C18.1031 17.539 16.7979 16.5576 15.6443 15.4125C14.4992 14.2589 13.5178 12.9537 12.7277 11.5333L13.3402 11.125C13.9867 10.8084 14.4934 10.2638 14.7626 9.59617C15.0318 8.92848 15.0446 8.18482 14.7985 7.50828C14.5669 6.88473 14.3769 6.24653 14.2298 5.59787C14.1568 5.27703 14.0985 4.94162 14.0548 4.6062C13.8777 3.57898 13.3396 2.64874 12.5375 1.98301C11.7354 1.31727 10.722 0.959796 9.67975 0.97495H5.30475C4.67625 0.969049 4.05386 1.09864 3.47995 1.35489C2.90604 1.61114 2.39408 1.98805 1.97892 2.45994C1.56376 2.93184 1.25515 3.48765 1.07411 4.08953C0.89306 4.69142 0.843823 5.32524 0.929749 5.94787C1.70666 12.0574 4.49687 17.7339 8.85966 22.0809C13.2224 26.4278 18.9091 29.1974 25.0214 29.952H25.5756C26.651 29.9536 27.6893 29.5591 28.4923 28.8437C28.9536 28.4311 29.3222 27.9252 29.5736 27.3596C29.8249 26.794 29.9535 26.1814 29.9506 25.5625V21.1875C29.9327 20.1745 29.5638 19.1991 28.9069 18.4278C28.25 17.6565 27.3457 17.1371 26.3485 16.9583V16.9583ZM27.0777 25.7083C27.0774 25.9153 27.0331 26.12 26.9476 26.3086C26.8621 26.4972 26.7374 26.6654 26.5818 26.802C26.4194 26.9435 26.2289 27.0491 26.0228 27.1119C25.8168 27.1747 25.5998 27.1934 25.386 27.1666C19.9244 26.4663 14.8513 23.9677 10.967 20.065C7.08274 16.1622 4.60826 11.0773 3.93392 5.61245C3.91071 5.39883 3.93105 5.18272 3.99371 4.97719C4.05637 4.77165 4.16006 4.58095 4.2985 4.41662C4.43516 4.26106 4.60338 4.13639 4.79197 4.05089C4.98056 3.9654 5.18519 3.92105 5.39225 3.92078H9.76725C10.1064 3.91324 10.4375 4.02415 10.7037 4.23443C10.9699 4.44471 11.1544 4.7412 11.2256 5.07287C11.2839 5.47148 11.3568 5.86523 11.4443 6.25412C11.6128 7.02287 11.837 7.77834 12.1152 8.51453L10.0735 9.46245C9.89893 9.54254 9.74191 9.65633 9.61144 9.79728C9.48097 9.93822 9.37963 10.1036 9.31323 10.2838C9.24683 10.464 9.21669 10.6556 9.22453 10.8475C9.23237 11.0394 9.27804 11.2278 9.35892 11.402C11.4577 15.8977 15.0716 19.5115 19.5672 21.6104C19.9223 21.7562 20.3205 21.7562 20.6756 21.6104C20.8575 21.5453 21.0246 21.4448 21.1673 21.3146C21.31 21.1844 21.4254 21.0272 21.5068 20.852L22.411 18.8104C23.1649 19.08 23.9344 19.304 24.7152 19.4812C25.1041 19.5687 25.4978 19.6416 25.8964 19.7C26.2281 19.7711 26.5246 19.9556 26.7349 20.2218C26.9451 20.488 27.056 20.8192 27.0485 21.1583L27.0777 25.7083Z" fill="#333333"/>
</svg>
