<svg width="35" height="35" viewBox="0 0 35 35" fill="none" xmlns="http://www.w3.org/2000/svg">
<path d="M24.7911 13.125H10.2078C9.821 13.125 9.45006 13.2786 9.17657 13.5521C8.90308 13.8256 8.74944 14.1966 8.74944 14.5833C8.74944 14.9701 8.90308 15.341 9.17657 15.6145C9.45006 15.888 9.821 16.0417 10.2078 16.0417H24.7911C25.1779 16.0417 25.5488 15.888 25.8223 15.6145C26.0958 15.341 26.2494 14.9701 26.2494 14.5833C26.2494 14.1966 26.0958 13.8256 25.8223 13.5521C25.5488 13.2786 25.1779 13.125 24.7911 13.125ZM18.9578 18.9583H10.2078C9.821 18.9583 9.45006 19.112 9.17657 19.3855C8.90308 19.659 8.74944 20.0299 8.74944 20.4167C8.74944 20.8034 8.90308 21.1744 9.17657 21.4479C9.45006 21.7214 9.821 21.875 10.2078 21.875H18.9578C19.3445 21.875 19.7155 21.7214 19.989 21.4479C20.2625 21.1744 20.4161 20.8034 20.4161 20.4167C20.4161 20.0299 20.2625 19.659 19.989 19.3855C19.7155 19.112 19.3445 18.9583 18.9578 18.9583ZM17.4994 2.91667C15.5843 2.91667 13.688 3.29388 11.9186 4.02676C10.1493 4.75964 8.54165 5.83384 7.18746 7.18803C4.45256 9.92293 2.91611 13.6323 2.91611 17.5C2.90336 20.8675 4.06934 24.1333 6.21194 26.7313L3.29527 29.6479C3.09292 29.853 2.95584 30.1134 2.90134 30.3963C2.84683 30.6792 2.87734 30.9719 2.98902 31.2375C3.11015 31.4999 3.30651 31.7204 3.55317 31.871C3.79984 32.0216 4.08569 32.0955 4.37444 32.0833H17.4994C21.3672 32.0833 25.0765 30.5469 27.8114 27.812C30.5463 25.0771 32.0828 21.3677 32.0828 17.5C32.0828 13.6323 30.5463 9.92293 27.8114 7.18803C25.0765 4.45312 21.3672 2.91667 17.4994 2.91667ZM17.4994 29.1667H7.88902L9.24527 27.8104C9.51689 27.5372 9.66934 27.1676 9.66934 26.7823C9.66934 26.397 9.51689 26.0274 9.24527 25.7542C7.33571 23.8467 6.14657 21.3362 5.88045 18.6503C5.61432 15.9644 6.28769 13.2694 7.78581 11.0243C9.28393 8.77922 11.5141 7.12302 14.0964 6.33788C16.6787 5.55273 19.4534 5.68722 21.9477 6.71842C24.4419 7.74962 26.5015 9.61373 27.7755 11.9932C29.0495 14.3726 29.459 17.1202 28.9344 19.7677C28.4098 22.4153 26.9834 24.799 24.8983 26.5129C22.8133 28.2267 20.1985 29.1645 17.4994 29.1667Z" fill="#1045FF"/>
</svg>
