<svg width="35" height="35" viewBox="0 0 35 35" fill="none" xmlns="http://www.w3.org/2000/svg">
<path d="M18.959 20.4167C16.6809 20.4167 15.4037 20.4167 13.1257 20.4167C12.7389 20.4167 12.3679 20.5703 12.0945 20.8438C11.821 21.1173 11.6673 21.4882 11.6673 21.875C11.6673 22.2618 11.821 22.6327 12.0945 22.9062C12.3679 23.1797 12.7389 23.3333 13.1257 23.3333H18.959C19.3458 23.3333 19.7167 23.1797 19.9902 22.9062C20.2637 22.6327 20.4173 22.2618 20.4173 21.875C20.4173 21.4882 20.2637 21.1173 19.9902 20.8438C19.7167 20.5703 19.3458 20.4167 18.959 20.4167ZM24.7923 5.83333H23.0715C22.7706 4.98232 22.2139 4.2452 21.4776 3.72303C20.7414 3.20086 19.8616 2.9192 18.959 2.91666H16.0423C15.1397 2.9192 14.2599 3.20086 13.5237 3.72303C12.7874 4.2452 12.2307 4.98232 11.9298 5.83333H10.209C9.04866 5.83333 7.93586 6.29427 7.11539 7.11474C6.29492 7.93521 5.83398 9.04801 5.83398 10.2083V27.7083C5.83398 28.8687 6.29492 29.9815 7.11539 30.8019C7.93586 31.6224 9.04866 32.0833 10.209 32.0833H24.7923C25.9526 32.0833 27.0654 31.6224 27.8859 30.8019C28.7064 29.9815 29.1673 28.8687 29.1673 27.7083V10.2083C29.1673 9.04801 28.7064 7.93521 27.8859 7.11474C27.0654 6.29427 25.9526 5.83333 24.7923 5.83333ZM14.584 7.29166C14.584 6.90489 14.7376 6.53396 15.0111 6.26047C15.2846 5.98698 15.6555 5.83333 16.0423 5.83333H18.959C19.3458 5.83333 19.7167 5.98698 19.9902 6.26047C20.2637 6.53396 20.4173 6.90489 20.4173 7.29166V8.75H14.584V7.29166ZM26.2507 27.7083C26.2507 28.0951 26.097 28.466 25.8235 28.7395C25.55 29.013 25.1791 29.1667 24.7923 29.1667H10.209C9.82221 29.1667 9.45128 29.013 9.17779 28.7395C8.9043 28.466 8.75065 28.0951 8.75065 27.7083V10.2083C8.75065 9.82156 8.9043 9.45062 9.17779 9.17713C9.45128 8.90364 9.82221 8.75 10.209 8.75H11.6673V10.2083C11.6673 10.5951 11.821 10.966 12.0945 11.2395C12.3679 11.513 12.7389 11.6667 13.1257 11.6667H21.8757C22.2624 11.6667 22.6334 11.513 22.9068 11.2395C23.1803 10.966 23.334 10.5951 23.334 10.2083V8.75H24.7923C25.1791 8.75 25.55 8.90364 25.8235 9.17713C26.097 9.45062 26.2507 9.82156 26.2507 10.2083V27.7083ZM21.8757 14.5833H13.1257C12.7389 14.5833 12.3679 14.737 12.0945 15.0105C11.821 15.284 11.6673 15.6549 11.6673 16.0417C11.6673 16.4284 11.821 16.7994 12.0945 17.0729C12.3679 17.3464 12.7389 17.5 13.1257 17.5H17.5007H21.8757C22.2624 17.5 22.6334 17.3464 22.9068 17.0729C23.1803 16.7994 23.334 16.4284 23.334 16.0417C23.334 15.6549 23.1803 15.284 22.9068 15.0105C22.6334 14.737 22.2624 14.5833 21.8757 14.5833Z" fill="#1045FF"/>
</svg>
