<svg width="31" height="31" viewBox="0 0 31 31" fill="none" xmlns="http://www.w3.org/2000/svg">
<path d="M22.7911 11.125H8.20777C7.821 11.125 7.45006 11.2787 7.17657 11.5522C6.90308 11.8256 6.74944 12.1966 6.74944 12.5834C6.74944 12.9701 6.90308 13.3411 7.17657 13.6146C7.45006 13.888 7.821 14.0417 8.20777 14.0417H22.7911C23.1779 14.0417 23.5488 13.888 23.8223 13.6146C24.0958 13.3411 24.2494 12.9701 24.2494 12.5834C24.2494 12.1966 24.0958 11.8256 23.8223 11.5522C23.5488 11.2787 23.1779 11.125 22.7911 11.125ZM16.9578 16.9584H8.20777C7.821 16.9584 7.45006 17.112 7.17657 17.3855C6.90308 17.659 6.74944 18.0299 6.74944 18.4167C6.74944 18.8035 6.90308 19.1744 7.17657 19.4479C7.45006 19.7214 7.821 19.875 8.20777 19.875H16.9578C17.3445 19.875 17.7155 19.7214 17.989 19.4479C18.2625 19.1744 18.4161 18.8035 18.4161 18.4167C18.4161 18.0299 18.2625 17.659 17.989 17.3855C17.7155 17.112 17.3445 16.9584 16.9578 16.9584ZM15.4994 0.916687C13.5843 0.916687 11.688 1.2939 9.91864 2.02678C8.14931 2.75966 6.54165 3.83386 5.18746 5.18805C2.45256 7.92295 0.916105 11.6323 0.916105 15.5C0.903356 18.8675 2.06934 22.1333 4.21194 24.7313L1.29527 27.6479C1.09292 27.853 0.955839 28.1134 0.901335 28.3963C0.846831 28.6792 0.877343 28.9719 0.989022 29.2375C1.11015 29.4999 1.30651 29.7204 1.55317 29.871C1.79984 30.0216 2.08569 30.0955 2.37444 30.0834H15.4994C19.3672 30.0834 23.0765 28.5469 25.8114 25.812C28.5463 23.0771 30.0828 19.3678 30.0828 15.5C30.0828 11.6323 28.5463 7.92295 25.8114 5.18805C23.0765 2.45314 19.3672 0.916687 15.4994 0.916687ZM15.4994 27.1667H5.88902L7.24527 25.8104C7.51689 25.5372 7.66934 25.1676 7.66934 24.7823C7.66934 24.397 7.51689 24.0274 7.24527 23.7542C5.33571 21.8467 4.14657 19.3362 3.88045 16.6503C3.61432 13.9645 4.28769 11.2694 5.78581 9.02432C7.28393 6.77924 9.51413 5.12304 12.0964 4.3379C14.6787 3.55275 17.4534 3.68724 19.9477 4.71844C22.4419 5.74964 24.5015 7.61375 25.7755 9.9932C27.0495 12.3726 27.459 15.1202 26.9344 17.7677C26.4098 20.4153 24.9834 22.799 22.8983 24.5129C20.8133 26.2267 18.1985 27.1646 15.4994 27.1667Z" fill="#32BF8A"/>
</svg>
