<svg width="25" height="31" viewBox="0 0 25 31" fill="none" xmlns="http://www.w3.org/2000/svg">
<path d="M13.959 18.4167H8.12565C7.73888 18.4167 7.36794 18.5703 7.09445 18.8438C6.82096 19.1173 6.66732 19.4882 6.66732 19.875C6.66732 20.2618 6.82096 20.6327 7.09445 20.9062C7.36794 21.1797 7.73888 21.3334 8.12565 21.3334H13.959C14.3458 21.3334 14.7167 21.1797 14.9902 20.9062C15.2637 20.6327 15.4173 20.2618 15.4173 19.875C15.4173 19.4882 15.2637 19.1173 14.9902 18.8438C14.7167 18.5703 14.3458 18.4167 13.959 18.4167ZM19.7923 3.83335H18.0715C17.7706 2.98234 17.2139 2.24523 16.4776 1.72306C15.7414 1.20088 14.8616 0.919224 13.959 0.916687H11.0423C10.1397 0.919224 9.25994 1.20088 8.52368 1.72306C7.78742 2.24523 7.23069 2.98234 6.92982 3.83335H5.20898C4.04866 3.83335 2.93586 4.29429 2.11539 5.11476C1.29492 5.93523 0.833984 7.04803 0.833984 8.20835V25.7084C0.833984 26.8687 1.29492 27.9815 2.11539 28.8019C2.93586 29.6224 4.04866 30.0834 5.20898 30.0834H19.7923C20.9526 30.0834 22.0654 29.6224 22.8859 28.8019C23.7064 27.9815 24.1673 26.8687 24.1673 25.7084V8.20835C24.1673 7.04803 23.7064 5.93523 22.8859 5.11476C22.0654 4.29429 20.9526 3.83335 19.7923 3.83335V3.83335ZM9.58398 5.29169C9.58398 4.90491 9.73763 4.53398 10.0111 4.26049C10.2846 3.987 10.6555 3.83335 11.0423 3.83335H13.959C14.3458 3.83335 14.7167 3.987 14.9902 4.26049C15.2637 4.53398 15.4173 4.90491 15.4173 5.29169V6.75002H9.58398V5.29169ZM21.2507 25.7084C21.2507 26.0951 21.097 26.4661 20.8235 26.7396C20.55 27.013 20.1791 27.1667 19.7923 27.1667H5.20898C4.82221 27.1667 4.45128 27.013 4.17779 26.7396C3.9043 26.4661 3.75065 26.0951 3.75065 25.7084V8.20835C3.75065 7.82158 3.9043 7.45065 4.17779 7.17716C4.45128 6.90367 4.82221 6.75002 5.20898 6.75002H6.66732V8.20835C6.66732 8.59513 6.82096 8.96606 7.09445 9.23955C7.36794 9.51304 7.73888 9.66669 8.12565 9.66669H16.8757C17.2624 9.66669 17.6334 9.51304 17.9068 9.23955C18.1803 8.96606 18.334 8.59513 18.334 8.20835V6.75002H19.7923C20.1791 6.75002 20.55 6.90367 20.8235 7.17716C21.097 7.45065 21.2507 7.82158 21.2507 8.20835V25.7084ZM16.8757 12.5834H8.12565C7.73888 12.5834 7.36794 12.737 7.09445 13.0105C6.82096 13.284 6.66732 13.6549 6.66732 14.0417C6.66732 14.4285 6.82096 14.7994 7.09445 15.0729C7.36794 15.3464 7.73888 15.5 8.12565 15.5H16.8757C17.2624 15.5 17.6334 15.3464 17.9068 15.0729C18.1803 14.7994 18.334 14.4285 18.334 14.0417C18.334 13.6549 18.1803 13.284 17.9068 13.0105C17.6334 12.737 17.2624 12.5834 16.8757 12.5834Z" fill="#333333"/>
</svg>
