<svg width="110" height="110" viewBox="0 0 110 110" fill="none" xmlns="http://www.w3.org/2000/svg">
<rect width="110" height="110" rx="10" fill="white"/>
<path d="M79.4726 55L97.4687 37.0039C101.628 32.8445 101.628 26.1007 97.4687 21.9413L88.0587 12.5313C83.8993 8.37188 77.1555 8.37189 72.9961 12.5313L55 30.5274M79.4726 55L97.4687 72.9961C101.628 77.1555 101.628 83.8993 97.4687 88.0587L88.0587 97.4687C83.8993 101.628 77.1555 101.628 72.9961 97.4687L55 79.4726M79.4726 55L55 79.4726M55 30.5274L37.0039 12.5313C32.8445 8.37188 26.1007 8.37188 21.9413 12.5313L12.5313 21.9413C8.37188 26.1007 8.37189 32.8445 12.5313 37.0039L30.5274 55M55 30.5274L30.5274 55M30.5274 55L12.5313 72.9961C8.37188 77.1555 8.37189 83.8993 12.5313 88.0587L21.9413 97.4687C26.1007 101.628 32.8445 101.628 37.0039 97.4687L55 79.4726M66.0364 81.3318L65.9045 81.1999C65.0598 80.3552 65.0598 78.9856 65.9045 78.1408V78.1408C66.7493 77.2961 68.1189 77.2961 68.9636 78.1408L69.0955 78.2727C69.9402 79.1174 69.9402 80.487 69.0955 81.3318V81.3318C68.2507 82.1765 66.8811 82.1765 66.0364 81.3318ZM72.1545 75.2136L72.0227 75.0818C71.1779 74.237 71.1779 72.8674 72.0227 72.0227V72.0227C72.8674 71.1779 74.237 71.1779 75.0818 72.0227L75.2136 72.1545C76.0583 72.9993 76.0584 74.3689 75.2136 75.2136V75.2136C74.3689 76.0584 72.9993 76.0583 72.1545 75.2136ZM78.1408 65.9045V65.9045C78.9856 65.0598 80.3552 65.0598 81.1999 65.9045L81.3318 66.0364C82.1765 66.8811 82.1765 68.2507 81.3318 69.0955V69.0955C80.487 69.9402 79.1174 69.9402 78.2727 69.0955L78.1408 68.9636C77.2961 68.1189 77.2961 66.7493 78.1408 65.9045ZM93.9636 78.6683L94.0955 78.8001C94.9402 79.6448 94.9402 81.0144 94.0955 81.8592V81.8592C93.2507 82.7039 91.8811 82.7039 91.0364 81.8592L90.9045 81.7273C90.0598 80.8826 90.0598 79.513 90.9045 78.6683V78.6683C91.7493 77.8235 93.1189 77.8235 93.9636 78.6683ZM87.9773 84.9183L87.8455 84.7864C87.0007 83.9417 85.6311 83.9417 84.7864 84.7864V84.7864C83.9417 85.6311 83.9417 87.0007 84.7864 87.8455L84.9183 87.9773C85.763 88.8221 87.1326 88.8221 87.9773 87.9773V87.9773C88.8221 87.1326 88.8221 85.763 87.9773 84.9183ZM81.8592 94.0955V94.0955C82.7039 93.2507 82.7039 91.8811 81.8592 91.0364L81.7273 90.9045C80.8826 90.0598 79.513 90.0598 78.6683 90.9045V90.9045C77.8235 91.7493 77.8235 93.1189 78.6683 93.9636L78.8001 94.0955C79.6448 94.9402 81.0144 94.9402 81.8592 94.0955ZM72.4183 87.7136L72.2864 87.5818C71.4417 86.737 71.4417 85.3674 72.2864 84.5227V84.5227C73.1311 83.6779 74.5007 83.6779 75.3455 84.5227L75.4773 84.6545C76.3221 85.4993 76.3221 86.8689 75.4773 87.7136V87.7136C74.6326 88.5583 73.263 88.5583 72.4183 87.7136ZM87.5818 72.2864L87.7136 72.4183C88.5583 73.263 88.5583 74.6326 87.7136 75.4773V75.4773C86.8689 76.3221 85.4993 76.3221 84.6545 75.4773L84.5227 75.3455C83.6779 74.5007 83.6779 73.1311 84.5227 72.2864V72.2864C85.3674 71.4417 86.737 71.4417 87.5818 72.2864ZM81.5955 78.5364L81.4636 78.4045C80.6189 77.5598 79.2493 77.5598 78.4045 78.4045V78.4045C77.5598 79.2493 77.5598 80.6189 78.4045 81.4636L78.5364 81.5955C79.3811 82.4402 80.7507 82.4402 81.5955 81.5955V81.5955C82.4402 80.7507 82.4402 79.3811 81.5955 78.5364ZM15.9045 28.1408V28.1408C16.7493 27.2961 18.1189 27.2961 18.9636 28.1408L19.0955 28.2727C19.9402 29.1174 19.9402 30.487 19.0955 31.3318V31.3318C18.2507 32.1765 16.8811 32.1765 16.0364 31.3318L15.9045 31.1999C15.0598 30.3552 15.0598 28.9856 15.9045 28.1408ZM25.3455 34.5227L25.4773 34.6545C26.3221 35.4993 26.3221 36.8689 25.4773 37.7136V37.7136C24.6326 38.5583 23.263 38.5583 22.4182 37.7136L22.2864 37.5818C21.4417 36.737 21.4417 35.3674 22.2864 34.5227V34.5227C23.1311 33.6779 24.5007 33.6779 25.3455 34.5227ZM28.8001 44.0955L28.6683 43.9636C27.8235 43.1189 27.8235 41.7493 28.6683 40.9045V40.9045C29.513 40.0598 30.8826 40.0598 31.7273 40.9045L31.8592 41.0364C32.7039 41.8811 32.7039 43.2507 31.8592 44.0955V44.0955C31.0144 44.9402 29.6448 44.9402 28.8001 44.0955ZM44.0955 31.8592V31.8592C44.9402 31.0144 44.9402 29.6448 44.0955 28.8001L43.9636 28.6683C43.1189 27.8235 41.7493 27.8235 40.9045 28.6682V28.6682C40.0598 29.513 40.0598 30.8826 40.9045 31.7273L41.0364 31.8592C41.8811 32.7039 43.2507 32.7039 44.0955 31.8592ZM37.7136 25.4773V25.4773C38.5583 24.6326 38.5583 23.263 37.7136 22.4183L37.5818 22.2864C36.737 21.4417 35.3674 21.4417 34.5227 22.2864V22.2864C33.6779 23.1311 33.6779 24.5007 34.5227 25.3455L34.6545 25.4773C35.4993 26.3221 36.8689 26.3221 37.7136 25.4773ZM31.3318 16.0364L31.1999 15.9045C30.3552 15.0598 28.9856 15.0598 28.1408 15.9045V15.9045C27.2961 16.7493 27.2961 18.1189 28.1408 18.9636L28.2727 19.0955C29.1174 19.9402 30.487 19.9402 31.3318 19.0955V19.0955C32.1765 18.2507 32.1765 16.8811 31.3318 16.0364ZM25.2136 22.1545L25.0818 22.0227C24.237 21.1779 22.8674 21.1779 22.0227 22.0227V22.0227C21.1779 22.8674 21.1779 24.237 22.0227 25.0818L22.1545 25.2136C22.9993 26.0583 24.3689 26.0583 25.2136 25.2136V25.2136C26.0583 24.3689 26.0583 22.9993 25.2136 22.1545ZM37.9773 34.9183L37.8455 34.7864C37.0007 33.9417 35.6311 33.9417 34.7864 34.7864V34.7864C33.9417 35.6311 33.9417 37.0007 34.7864 37.8455L34.9183 37.9773C35.763 38.8221 37.1326 38.8221 37.9773 37.9773V37.9773C38.8221 37.1326 38.8221 35.763 37.9773 34.9183ZM31.4636 28.4045L31.5955 28.5364C32.4402 29.3811 32.4402 30.7507 31.5955 31.5955V31.5955C30.7507 32.4402 29.3811 32.4402 28.5364 31.5955L28.4045 31.4636C27.5598 30.6189 27.5598 29.2493 28.4045 28.4045V28.4045C29.2493 27.5598 30.6189 27.5598 31.4636 28.4045ZM41.1178 50.5278L50.5278 41.1178C54.6872 36.9584 61.431 36.9584 65.5904 41.1178L68.8822 44.4096C73.0416 48.569 73.0416 55.3128 68.8822 59.4722L59.4722 68.8822C55.3128 73.0416 48.569 73.0416 44.4096 68.8822L41.1178 65.5904C36.9584 61.431 36.9584 54.6872 41.1178 50.5278Z" stroke="#005EA2" stroke-width="3.19527" stroke-linecap="round"/>
<path d="M47.3594 59.5976L49.9057 62.1439M59.5957 47.3613L62.142 49.9076M53.6753 59.7954H53.7044C55.2392 59.7954 56.7108 59.186 57.7961 58.1008C57.894 58.0029 57.9947 57.9021 58.0981 57.7988C59.1834 56.7135 59.7934 55.2412 59.7934 53.7063V53.6773" stroke="#005EA2" stroke-width="3.19527" stroke-linecap="round"/>
</svg>
