<svg width="1728" height="1080" viewBox="0 0 1728 1080" fill="none" xmlns="http://www.w3.org/2000/svg">
<path d="M107.934 878.909L79.6867 850.061C75.8286 846.121 73.668 840.826 73.668 835.311C73.668 830.486 75.5586 825.853 78.9344 822.405L81.175 820.117C86.5115 814.667 95.2846 814.667 100.621 820.117L107.934 827.585C108.04 827.694 108.216 827.694 108.323 827.585L115.635 820.117C120.972 814.667 129.745 814.667 135.081 820.117L137.149 822.229C140.636 825.79 142.588 830.575 142.588 835.558V835.849C142.588 841.019 140.563 845.983 136.946 849.677L108.323 878.909C108.216 879.018 108.04 879.018 107.934 878.909Z" stroke="#E0E0E0" stroke-width="3.74566"/>
<path d="M96.7655 904.578L95.473 891.561C95.1834 888.645 93.6531 885.994 91.2723 884.285L74.3849 872.163C71.7815 870.294 68.1851 870.706 66.0714 873.114V873.114M96.7655 904.578H76.6637M96.7655 904.578V904.578C98.6273 904.578 100.137 906.087 100.137 907.949V915.482C100.137 916.631 99.2049 917.563 98.0556 917.563H79.7851C76.1994 917.563 73.2926 914.656 73.2926 911.07V907.949C73.2926 906.087 74.8019 904.578 76.6637 904.578V904.578M74.9158 883.977L66.3197 876.609C65.2785 875.716 65.1668 874.145 66.0714 873.114V873.114M76.6637 904.578L75.9094 902.854C75.2565 901.361 74.2555 900.047 72.9903 899.021L58.2134 887.037C55.826 885.101 54.4395 882.192 54.4395 879.118V851.219C54.4395 849.658 55.7049 848.393 57.266 848.393V848.393C58.5447 848.393 59.6642 849.251 59.9958 850.486L66.0714 873.114" stroke="#E0E0E0" stroke-width="3.74566" stroke-linecap="round"/>
<path d="M119.49 904.578L120.783 891.561C121.072 888.645 122.603 885.994 124.984 884.285L141.871 872.163C144.474 870.294 148.071 870.706 150.184 873.114V873.114M119.49 904.578H139.592M119.49 904.578V904.578C117.629 904.578 116.119 906.087 116.119 907.949V915.482C116.119 916.631 117.051 917.563 118.2 917.563H136.471C140.056 917.563 142.963 914.656 142.963 911.07V907.949C142.963 906.087 141.454 904.578 139.592 904.578V904.578M141.34 883.977L149.936 876.609C150.977 875.716 151.089 874.145 150.184 873.114V873.114M139.592 904.578L140.346 902.854C140.999 901.361 142 900.047 143.266 899.021L158.042 887.037C160.43 885.101 161.816 882.192 161.816 879.118V851.219C161.816 849.658 160.551 848.393 158.99 848.393V848.393C157.711 848.393 156.592 849.251 156.26 850.486L150.184 873.114" stroke="#E0E0E0" stroke-width="3.74566" stroke-linecap="round"/>
<path d="M107.934 662.909L79.6867 634.061C75.8286 630.121 73.668 624.826 73.668 619.311C73.668 614.486 75.5586 609.853 78.9344 606.405L81.175 604.117C86.5115 598.667 95.2846 598.667 100.621 604.117L107.934 611.585C108.04 611.694 108.216 611.694 108.323 611.585L115.635 604.117C120.972 598.667 129.745 598.667 135.081 604.117L137.149 606.229C140.636 609.79 142.588 614.575 142.588 619.558V619.849C142.588 625.019 140.563 629.983 136.946 633.677L108.323 662.909C108.216 663.018 108.04 663.018 107.934 662.909Z" stroke="#E0E0E0" stroke-width="3.74566"/>
<path d="M96.7655 688.578L95.473 675.561C95.1834 672.645 93.6531 669.994 91.2723 668.285L74.3849 656.163C71.7815 654.294 68.1851 654.706 66.0714 657.114V657.114M96.7655 688.578H76.6637M96.7655 688.578V688.578C98.6273 688.578 100.137 690.087 100.137 691.949V699.482C100.137 700.631 99.2049 701.563 98.0556 701.563H79.7851C76.1994 701.563 73.2926 698.656 73.2926 695.07V691.949C73.2926 690.087 74.8019 688.578 76.6637 688.578V688.578M74.9158 667.977L66.3197 660.609C65.2785 659.716 65.1668 658.145 66.0714 657.114V657.114M76.6637 688.578L75.9094 686.854C75.2565 685.361 74.2555 684.047 72.9903 683.021L58.2134 671.037C55.826 669.101 54.4395 666.192 54.4395 663.118V635.219C54.4395 633.658 55.7049 632.393 57.266 632.393V632.393C58.5447 632.393 59.6642 633.251 59.9958 634.486L66.0714 657.114" stroke="#E0E0E0" stroke-width="3.74566" stroke-linecap="round"/>
<path d="M119.49 688.578L120.783 675.561C121.072 672.645 122.603 669.994 124.984 668.285L141.871 656.163C144.474 654.294 148.071 654.706 150.184 657.114V657.114M119.49 688.578H139.592M119.49 688.578V688.578C117.629 688.578 116.119 690.087 116.119 691.949V699.482C116.119 700.631 117.051 701.563 118.2 701.563H136.471C140.056 701.563 142.963 698.656 142.963 695.07V691.949C142.963 690.087 141.454 688.578 139.592 688.578V688.578M141.34 667.977L149.936 660.609C150.977 659.716 151.089 658.145 150.184 657.114V657.114M139.592 688.578L140.346 686.854C140.999 685.361 142 684.047 143.266 683.021L158.042 671.037C160.43 669.101 161.816 666.192 161.816 663.118V635.219C161.816 633.658 160.551 632.393 158.99 632.393V632.393C157.711 632.393 156.592 633.251 156.26 634.486L150.184 657.114" stroke="#E0E0E0" stroke-width="3.74566" stroke-linecap="round"/>
<path d="M107.934 446.909L79.6867 418.061C75.8286 414.121 73.668 408.826 73.668 403.311C73.668 398.486 75.5586 393.853 78.9344 390.405L81.175 388.117C86.5115 382.667 95.2846 382.667 100.621 388.117L107.934 395.585C108.04 395.694 108.216 395.694 108.323 395.585L115.635 388.117C120.972 382.667 129.745 382.667 135.081 388.117L137.149 390.229C140.636 393.79 142.588 398.575 142.588 403.558V403.849C142.588 409.019 140.563 413.983 136.946 417.677L108.323 446.909C108.216 447.018 108.04 447.018 107.934 446.909Z" stroke="#E0E0E0" stroke-width="3.74566"/>
<path d="M96.7655 472.578L95.473 459.561C95.1834 456.645 93.6531 453.994 91.2723 452.285L74.3849 440.163C71.7815 438.294 68.1851 438.706 66.0714 441.114V441.114M96.7655 472.578H76.6637M96.7655 472.578V472.578C98.6273 472.578 100.137 474.087 100.137 475.949V483.482C100.137 484.631 99.2049 485.563 98.0556 485.563H79.7851C76.1994 485.563 73.2926 482.656 73.2926 479.071V475.949C73.2926 474.087 74.8019 472.578 76.6637 472.578V472.578M74.9158 451.977L66.3197 444.609C65.2785 443.716 65.1668 442.145 66.0714 441.114V441.114M76.6637 472.578L75.9094 470.854C75.2565 469.361 74.2555 468.047 72.9903 467.021L58.2134 455.037C55.826 453.101 54.4395 450.192 54.4395 447.118V419.22C54.4395 417.659 55.7049 416.393 57.266 416.393V416.393C58.5447 416.393 59.6642 417.252 59.9958 418.487L66.0714 441.114" stroke="#E0E0E0" stroke-width="3.74566" stroke-linecap="round"/>
<path d="M119.49 472.578L120.783 459.561C121.072 456.645 122.603 453.994 124.984 452.285L141.871 440.163C144.474 438.294 148.071 438.706 150.184 441.114V441.114M119.49 472.578H139.592M119.49 472.578V472.578C117.629 472.578 116.119 474.087 116.119 475.949V483.482C116.119 484.631 117.051 485.563 118.2 485.563H136.471C140.056 485.563 142.963 482.656 142.963 479.071V475.949C142.963 474.087 141.454 472.578 139.592 472.578V472.578M141.34 451.977L149.936 444.609C150.977 443.716 151.089 442.145 150.184 441.114V441.114M139.592 472.578L140.346 470.854C140.999 469.361 142 468.047 143.266 467.021L158.042 455.037C160.43 453.101 161.816 450.192 161.816 447.118V419.22C161.816 417.659 160.551 416.393 158.99 416.393V416.393C157.711 416.393 156.592 417.252 156.26 418.487L150.184 441.114" stroke="#E0E0E0" stroke-width="3.74566" stroke-linecap="round"/>
<path d="M107.934 230.909L79.6867 202.061C75.8286 198.121 73.668 192.826 73.668 187.311C73.668 182.486 75.5586 177.853 78.9344 174.405L81.175 172.117C86.5115 166.667 95.2846 166.667 100.621 172.117L107.934 179.585C108.04 179.694 108.216 179.694 108.323 179.585L115.635 172.117C120.972 166.667 129.745 166.667 135.081 172.117L137.149 174.229C140.636 177.79 142.588 182.575 142.588 187.558V187.849C142.588 193.019 140.563 197.983 136.946 201.677L108.323 230.909C108.216 231.018 108.04 231.018 107.934 230.909Z" stroke="#E0E0E0" stroke-width="3.74566"/>
<path d="M96.7655 256.578L95.473 243.561C95.1834 240.645 93.6531 237.994 91.2723 236.285L74.3849 224.163C71.7815 222.294 68.1851 222.706 66.0714 225.114V225.114M96.7655 256.578H76.6637M96.7655 256.578V256.578C98.6273 256.578 100.137 258.087 100.137 259.949V267.482C100.137 268.631 99.2049 269.563 98.0556 269.563H79.7851C76.1994 269.563 73.2926 266.656 73.2926 263.071V259.949C73.2926 258.087 74.8019 256.578 76.6637 256.578V256.578M74.9158 235.977L66.3197 228.609C65.2785 227.716 65.1668 226.145 66.0714 225.114V225.114M76.6637 256.578L75.9094 254.854C75.2565 253.361 74.2555 252.047 72.9903 251.021L58.2134 239.037C55.826 237.101 54.4395 234.192 54.4395 231.118V203.22C54.4395 201.659 55.7049 200.393 57.266 200.393V200.393C58.5447 200.393 59.6642 201.252 59.9958 202.487L66.0714 225.114" stroke="#E0E0E0" stroke-width="3.74566" stroke-linecap="round"/>
<path d="M119.49 256.578L120.783 243.561C121.072 240.645 122.603 237.994 124.984 236.285L141.871 224.163C144.474 222.294 148.071 222.706 150.184 225.114V225.114M119.49 256.578H139.592M119.49 256.578V256.578C117.629 256.578 116.119 258.087 116.119 259.949V267.482C116.119 268.631 117.051 269.563 118.2 269.563H136.471C140.056 269.563 142.963 266.656 142.963 263.071V259.949C142.963 258.087 141.454 256.578 139.592 256.578V256.578M141.34 235.977L149.936 228.609C150.977 227.716 151.089 226.145 150.184 225.114V225.114M139.592 256.578L140.346 254.854C140.999 253.361 142 252.047 143.266 251.021L158.042 239.037C160.43 237.101 161.816 234.192 161.816 231.118V203.22C161.816 201.659 160.551 200.393 158.99 200.393V200.393C157.711 200.393 156.592 201.252 156.26 202.487L150.184 225.114" stroke="#E0E0E0" stroke-width="3.74566" stroke-linecap="round"/>
<path d="M323.934 338.909L295.687 310.061C291.829 306.121 289.668 300.826 289.668 295.311C289.668 290.486 291.559 285.853 294.934 282.405L297.175 280.117C302.511 274.667 311.285 274.667 316.621 280.117L323.934 287.585C324.04 287.694 324.216 287.694 324.323 287.585L331.635 280.117C336.972 274.667 345.745 274.667 351.081 280.117L353.149 282.229C356.636 285.79 358.588 290.575 358.588 295.558V295.849C358.588 301.019 356.563 305.983 352.946 309.677L324.323 338.909C324.216 339.018 324.04 339.018 323.934 338.909Z" stroke="#E0E0E0" stroke-width="3.74566"/>
<path d="M312.765 364.578L311.473 351.561C311.183 348.645 309.653 345.994 307.272 344.285L290.385 332.163C287.782 330.294 284.185 330.706 282.071 333.114V333.114M312.765 364.578H292.664M312.765 364.578V364.578C314.627 364.578 316.137 366.087 316.137 367.949V375.482C316.137 376.631 315.205 377.563 314.056 377.563H295.785C292.199 377.563 289.293 374.656 289.293 371.071V367.949C289.293 366.087 290.802 364.578 292.664 364.578V364.578M290.916 343.977L282.32 336.609C281.278 335.716 281.167 334.145 282.071 333.114V333.114M292.664 364.578L291.909 362.854C291.256 361.361 290.256 360.047 288.99 359.021L274.213 347.037C271.826 345.101 270.439 342.192 270.439 339.118V311.22C270.439 309.659 271.705 308.393 273.266 308.393V308.393C274.545 308.393 275.664 309.252 275.996 310.487L282.071 333.114" stroke="#E0E0E0" stroke-width="3.74566" stroke-linecap="round"/>
<path d="M335.49 364.578L336.783 351.561C337.072 348.645 338.603 345.994 340.984 344.285L357.871 332.163C360.474 330.294 364.071 330.706 366.184 333.114V333.114M335.49 364.578H355.592M335.49 364.578V364.578C333.629 364.578 332.119 366.087 332.119 367.949V375.482C332.119 376.631 333.051 377.563 334.2 377.563H352.471C356.056 377.563 358.963 374.656 358.963 371.071V367.949C358.963 366.087 357.454 364.578 355.592 364.578V364.578M357.34 343.977L365.936 336.609C366.977 335.716 367.089 334.145 366.184 333.114V333.114M355.592 364.578L356.346 362.854C356.999 361.361 358 360.047 359.266 359.021L374.042 347.037C376.43 345.101 377.816 342.192 377.816 339.118V311.22C377.816 309.659 376.551 308.393 374.99 308.393V308.393C373.711 308.393 372.592 309.252 372.26 310.487L366.184 333.114" stroke="#E0E0E0" stroke-width="3.74566" stroke-linecap="round"/>
<path d="M323.934 122.909L295.687 94.061C291.829 90.1208 289.668 84.8258 289.668 79.3114C289.668 74.4862 291.559 69.8531 294.934 66.4055L297.175 64.1171C302.511 58.6671 311.285 58.6671 316.621 64.1171L323.934 71.5853C324.04 71.6943 324.216 71.6943 324.323 71.5853L331.635 64.1171C336.972 58.6671 345.745 58.6671 351.081 64.1171L353.149 66.2293C356.636 69.7899 358.588 74.5747 358.588 79.5579V79.849C358.588 85.0189 356.563 89.9829 352.946 93.6768L324.323 122.909C324.216 123.018 324.04 123.018 323.934 122.909Z" stroke="#E0E0E0" stroke-width="3.74566"/>
<path d="M312.765 148.578L311.473 135.561C311.183 132.645 309.653 129.994 307.272 128.285L290.385 116.163C287.782 114.294 284.185 114.706 282.071 117.114V117.114M312.765 148.578H292.664M312.765 148.578V148.578C314.627 148.578 316.137 150.087 316.137 151.949V159.482C316.137 160.631 315.205 161.563 314.056 161.563H295.785C292.199 161.563 289.293 158.656 289.293 155.071V151.949C289.293 150.087 290.802 148.578 292.664 148.578V148.578M290.916 127.977L282.32 120.609C281.278 119.716 281.167 118.145 282.071 117.114V117.114M292.664 148.578L291.909 146.854C291.256 145.361 290.256 144.047 288.99 143.021L274.213 131.037C271.826 129.101 270.439 126.192 270.439 123.118V95.2196C270.439 93.6585 271.705 92.3931 273.266 92.3931V92.3931C274.545 92.3931 275.664 93.2516 275.996 94.4866L282.071 117.114" stroke="#E0E0E0" stroke-width="3.74566" stroke-linecap="round"/>
<path d="M335.49 148.578L336.783 135.561C337.072 132.645 338.603 129.994 340.984 128.285L357.871 116.163C360.474 114.294 364.071 114.706 366.184 117.114V117.114M335.49 148.578H355.592M335.49 148.578V148.578C333.629 148.578 332.119 150.087 332.119 151.949V159.482C332.119 160.631 333.051 161.563 334.2 161.563H352.471C356.056 161.563 358.963 158.656 358.963 155.071V151.949C358.963 150.087 357.454 148.578 355.592 148.578V148.578M357.34 127.977L365.936 120.609C366.977 119.716 367.089 118.145 366.184 117.114V117.114M355.592 148.578L356.346 146.854C356.999 145.361 358 144.047 359.266 143.021L374.042 131.037C376.43 129.101 377.816 126.192 377.816 123.118V95.2196C377.816 93.6585 376.551 92.3931 374.99 92.3931V92.3931C373.711 92.3931 372.592 93.2516 372.26 94.4866L366.184 117.114" stroke="#E0E0E0" stroke-width="3.74566" stroke-linecap="round"/>
<path d="M323.934 554.909L295.687 526.061C291.829 522.121 289.668 516.826 289.668 511.311C289.668 506.486 291.559 501.853 294.934 498.405L297.175 496.117C302.511 490.667 311.285 490.667 316.621 496.117L323.934 503.585C324.04 503.694 324.216 503.694 324.323 503.585L331.635 496.117C336.972 490.667 345.745 490.667 351.081 496.117L353.149 498.229C356.636 501.79 358.588 506.575 358.588 511.558V511.849C358.588 517.019 356.563 521.983 352.946 525.677L324.323 554.909C324.216 555.018 324.04 555.018 323.934 554.909Z" stroke="#E0E0E0" stroke-width="3.74566"/>
<path d="M312.765 580.578L311.473 567.561C311.183 564.645 309.653 561.994 307.272 560.285L290.385 548.163C287.782 546.294 284.185 546.706 282.071 549.114V549.114M312.765 580.578H292.664M312.765 580.578V580.578C314.627 580.578 316.137 582.087 316.137 583.949V591.482C316.137 592.631 315.205 593.563 314.056 593.563H295.785C292.199 593.563 289.293 590.656 289.293 587.071V583.949C289.293 582.087 290.802 580.578 292.664 580.578V580.578M290.916 559.977L282.32 552.609C281.278 551.716 281.167 550.145 282.071 549.114V549.114M292.664 580.578L291.909 578.854C291.256 577.361 290.256 576.047 288.99 575.021L274.213 563.037C271.826 561.101 270.439 558.192 270.439 555.118V527.22C270.439 525.659 271.705 524.393 273.266 524.393V524.393C274.545 524.393 275.664 525.252 275.996 526.487L282.071 549.114" stroke="#E0E0E0" stroke-width="3.74566" stroke-linecap="round"/>
<path d="M335.49 580.578L336.783 567.561C337.072 564.645 338.603 561.994 340.984 560.285L357.871 548.163C360.474 546.294 364.071 546.706 366.184 549.114V549.114M335.49 580.578H355.592M335.49 580.578V580.578C333.629 580.578 332.119 582.087 332.119 583.949V591.482C332.119 592.631 333.051 593.563 334.2 593.563H352.471C356.056 593.563 358.963 590.656 358.963 587.071V583.949C358.963 582.087 357.454 580.578 355.592 580.578V580.578M357.34 559.977L365.936 552.609C366.977 551.716 367.089 550.145 366.184 549.114V549.114M355.592 580.578L356.346 578.854C356.999 577.361 358 576.047 359.266 575.021L374.042 563.037C376.43 561.101 377.816 558.192 377.816 555.118V527.22C377.816 525.659 376.551 524.393 374.99 524.393V524.393C373.711 524.393 372.592 525.252 372.26 526.487L366.184 549.114" stroke="#E0E0E0" stroke-width="3.74566" stroke-linecap="round"/>
<path d="M323.934 770.909L295.687 742.061C291.829 738.121 289.668 732.826 289.668 727.311C289.668 722.486 291.559 717.853 294.934 714.405L297.175 712.117C302.511 706.667 311.285 706.667 316.621 712.117L323.934 719.585C324.04 719.694 324.216 719.694 324.323 719.585L331.635 712.117C336.972 706.667 345.745 706.667 351.081 712.117L353.149 714.229C356.636 717.79 358.588 722.575 358.588 727.558V727.849C358.588 733.019 356.563 737.983 352.946 741.677L324.323 770.909C324.216 771.018 324.04 771.018 323.934 770.909Z" stroke="#E0E0E0" stroke-width="3.74566"/>
<path d="M312.765 796.578L311.473 783.561C311.183 780.645 309.653 777.994 307.272 776.285L290.385 764.163C287.782 762.294 284.185 762.706 282.071 765.114V765.114M312.765 796.578H292.664M312.765 796.578V796.578C314.627 796.578 316.137 798.087 316.137 799.949V807.482C316.137 808.631 315.205 809.563 314.056 809.563H295.785C292.199 809.563 289.293 806.656 289.293 803.07V799.949C289.293 798.087 290.802 796.578 292.664 796.578V796.578M290.916 775.977L282.32 768.609C281.278 767.716 281.167 766.145 282.071 765.114V765.114M292.664 796.578L291.909 794.854C291.256 793.361 290.256 792.047 288.99 791.021L274.213 779.037C271.826 777.101 270.439 774.192 270.439 771.118V743.219C270.439 741.658 271.705 740.393 273.266 740.393V740.393C274.545 740.393 275.664 741.251 275.996 742.486L282.071 765.114" stroke="#E0E0E0" stroke-width="3.74566" stroke-linecap="round"/>
<path d="M335.49 796.578L336.783 783.561C337.072 780.645 338.603 777.994 340.984 776.285L357.871 764.163C360.474 762.294 364.071 762.706 366.184 765.114V765.114M335.49 796.578H355.592M335.49 796.578V796.578C333.629 796.578 332.119 798.087 332.119 799.949V807.482C332.119 808.631 333.051 809.563 334.2 809.563H352.471C356.056 809.563 358.963 806.656 358.963 803.07V799.949C358.963 798.087 357.454 796.578 355.592 796.578V796.578M357.34 775.977L365.936 768.609C366.977 767.716 367.089 766.145 366.184 765.114V765.114M355.592 796.578L356.346 794.854C356.999 793.361 358 792.047 359.266 791.021L374.042 779.037C376.43 777.101 377.816 774.192 377.816 771.118V743.219C377.816 741.658 376.551 740.393 374.99 740.393V740.393C373.711 740.393 372.592 741.251 372.26 742.486L366.184 765.114" stroke="#E0E0E0" stroke-width="3.74566" stroke-linecap="round"/>
<path d="M323.934 986.909L295.687 958.061C291.829 954.121 289.668 948.826 289.668 943.311C289.668 938.486 291.559 933.853 294.934 930.405L297.175 928.117C302.511 922.667 311.285 922.667 316.621 928.117L323.934 935.585C324.04 935.694 324.216 935.694 324.323 935.585L331.635 928.117C336.972 922.667 345.745 922.667 351.081 928.117L353.149 930.229C356.636 933.79 358.588 938.575 358.588 943.558V943.849C358.588 949.019 356.563 953.983 352.946 957.677L324.323 986.909C324.216 987.018 324.04 987.018 323.934 986.909Z" stroke="#E0E0E0" stroke-width="3.74566"/>
<path d="M312.765 1012.58L311.473 999.561C311.183 996.645 309.653 993.994 307.272 992.285L290.385 980.163C287.782 978.294 284.185 978.706 282.071 981.114V981.114M312.765 1012.58H292.664M312.765 1012.58V1012.58C314.627 1012.58 316.137 1014.09 316.137 1015.95V1023.48C316.137 1024.63 315.205 1025.56 314.056 1025.56H295.785C292.199 1025.56 289.293 1022.66 289.293 1019.07V1015.95C289.293 1014.09 290.802 1012.58 292.664 1012.58V1012.58M290.916 991.977L282.32 984.609C281.278 983.716 281.167 982.145 282.071 981.114V981.114M292.664 1012.58L291.909 1010.85C291.256 1009.36 290.256 1008.05 288.99 1007.02L274.213 995.037C271.826 993.101 270.439 990.192 270.439 987.118V959.219C270.439 957.658 271.705 956.393 273.266 956.393V956.393C274.545 956.393 275.664 957.251 275.996 958.486L282.071 981.114" stroke="#E0E0E0" stroke-width="3.74566" stroke-linecap="round"/>
<path d="M335.49 1012.58L336.783 999.561C337.072 996.645 338.603 993.994 340.984 992.285L357.871 980.163C360.474 978.294 364.071 978.706 366.184 981.114V981.114M335.49 1012.58H355.592M335.49 1012.58V1012.58C333.629 1012.58 332.119 1014.09 332.119 1015.95V1023.48C332.119 1024.63 333.051 1025.56 334.2 1025.56H352.471C356.056 1025.56 358.963 1022.66 358.963 1019.07V1015.95C358.963 1014.09 357.454 1012.58 355.592 1012.58V1012.58M357.34 991.977L365.936 984.609C366.977 983.716 367.089 982.145 366.184 981.114V981.114M355.592 1012.58L356.346 1010.85C356.999 1009.36 358 1008.05 359.266 1007.02L374.042 995.037C376.43 993.101 377.816 990.192 377.816 987.118V959.219C377.816 957.658 376.551 956.393 374.99 956.393V956.393C373.711 956.393 372.592 957.251 372.26 958.486L366.184 981.114" stroke="#E0E0E0" stroke-width="3.74566" stroke-linecap="round"/>
<path d="M539.934 878.909L511.687 850.061C507.829 846.121 505.668 840.826 505.668 835.311C505.668 830.486 507.559 825.853 510.934 822.405L513.175 820.117C518.511 814.667 527.285 814.667 532.621 820.117L539.934 827.585C540.04 827.694 540.216 827.694 540.323 827.585L547.635 820.117C552.972 814.667 561.745 814.667 567.081 820.117L569.149 822.229C572.636 825.79 574.588 830.575 574.588 835.558V835.849C574.588 841.019 572.563 845.983 568.946 849.677L540.323 878.909C540.216 879.018 540.04 879.018 539.934 878.909Z" stroke="#E0E0E0" stroke-width="3.74566"/>
<path d="M528.765 904.578L527.473 891.561C527.183 888.645 525.653 885.994 523.272 884.285L506.385 872.163C503.782 870.294 500.185 870.706 498.071 873.114V873.114M528.765 904.578H508.664M528.765 904.578V904.578C530.627 904.578 532.137 906.087 532.137 907.949V915.482C532.137 916.631 531.205 917.563 530.056 917.563H511.785C508.199 917.563 505.293 914.656 505.293 911.07V907.949C505.293 906.087 506.802 904.578 508.664 904.578V904.578M506.916 883.977L498.32 876.609C497.278 875.716 497.167 874.145 498.071 873.114V873.114M508.664 904.578L507.909 902.854C507.256 901.361 506.256 900.047 504.99 899.021L490.213 887.037C487.826 885.101 486.439 882.192 486.439 879.118V851.219C486.439 849.658 487.705 848.393 489.266 848.393V848.393C490.545 848.393 491.664 849.251 491.996 850.486L498.071 873.114" stroke="#E0E0E0" stroke-width="3.74566" stroke-linecap="round"/>
<path d="M551.49 904.578L552.783 891.561C553.072 888.645 554.603 885.994 556.984 884.285L573.871 872.163C576.474 870.294 580.071 870.706 582.184 873.114V873.114M551.49 904.578H571.592M551.49 904.578V904.578C549.629 904.578 548.119 906.087 548.119 907.949V915.482C548.119 916.631 549.051 917.563 550.2 917.563H568.471C572.056 917.563 574.963 914.656 574.963 911.07V907.949C574.963 906.087 573.454 904.578 571.592 904.578V904.578M573.34 883.977L581.936 876.609C582.977 875.716 583.089 874.145 582.184 873.114V873.114M571.592 904.578L572.346 902.854C572.999 901.361 574 900.047 575.266 899.021L590.042 887.037C592.43 885.101 593.816 882.192 593.816 879.118V851.219C593.816 849.658 592.551 848.393 590.99 848.393V848.393C589.711 848.393 588.592 849.251 588.26 850.486L582.184 873.114" stroke="#E0E0E0" stroke-width="3.74566" stroke-linecap="round"/>
<path d="M539.934 662.909L511.687 634.061C507.829 630.121 505.668 624.826 505.668 619.311C505.668 614.486 507.559 609.853 510.934 606.405L513.175 604.117C518.511 598.667 527.285 598.667 532.621 604.117L539.934 611.585C540.04 611.694 540.216 611.694 540.323 611.585L547.635 604.117C552.972 598.667 561.745 598.667 567.081 604.117L569.149 606.229C572.636 609.79 574.588 614.575 574.588 619.558V619.849C574.588 625.019 572.563 629.983 568.946 633.677L540.323 662.909C540.216 663.018 540.04 663.018 539.934 662.909Z" stroke="#E0E0E0" stroke-width="3.74566"/>
<path d="M528.765 688.578L527.473 675.561C527.183 672.645 525.653 669.994 523.272 668.285L506.385 656.163C503.782 654.294 500.185 654.706 498.071 657.114V657.114M528.765 688.578H508.664M528.765 688.578V688.578C530.627 688.578 532.137 690.087 532.137 691.949V699.482C532.137 700.631 531.205 701.563 530.056 701.563H511.785C508.199 701.563 505.293 698.656 505.293 695.07V691.949C505.293 690.087 506.802 688.578 508.664 688.578V688.578M506.916 667.977L498.32 660.609C497.278 659.716 497.167 658.145 498.071 657.114V657.114M508.664 688.578L507.909 686.854C507.256 685.361 506.256 684.047 504.99 683.021L490.213 671.037C487.826 669.101 486.439 666.192 486.439 663.118V635.219C486.439 633.658 487.705 632.393 489.266 632.393V632.393C490.545 632.393 491.664 633.251 491.996 634.486L498.071 657.114" stroke="#E0E0E0" stroke-width="3.74566" stroke-linecap="round"/>
<path d="M551.49 688.578L552.783 675.561C553.072 672.645 554.603 669.994 556.984 668.285L573.871 656.163C576.474 654.294 580.071 654.706 582.184 657.114V657.114M551.49 688.578H571.592M551.49 688.578V688.578C549.629 688.578 548.119 690.087 548.119 691.949V699.482C548.119 700.631 549.051 701.563 550.2 701.563H568.471C572.056 701.563 574.963 698.656 574.963 695.07V691.949C574.963 690.087 573.454 688.578 571.592 688.578V688.578M573.34 667.977L581.936 660.609C582.977 659.716 583.089 658.145 582.184 657.114V657.114M571.592 688.578L572.346 686.854C572.999 685.361 574 684.047 575.266 683.021L590.042 671.037C592.43 669.101 593.816 666.192 593.816 663.118V635.219C593.816 633.658 592.551 632.393 590.99 632.393V632.393C589.711 632.393 588.592 633.251 588.26 634.486L582.184 657.114" stroke="#E0E0E0" stroke-width="3.74566" stroke-linecap="round"/>
<path d="M539.934 446.909L511.687 418.061C507.829 414.121 505.668 408.826 505.668 403.311C505.668 398.486 507.559 393.853 510.934 390.405L513.175 388.117C518.511 382.667 527.285 382.667 532.621 388.117L539.934 395.585C540.04 395.694 540.216 395.694 540.323 395.585L547.635 388.117C552.972 382.667 561.745 382.667 567.081 388.117L569.149 390.229C572.636 393.79 574.588 398.575 574.588 403.558V403.849C574.588 409.019 572.563 413.983 568.946 417.677L540.323 446.909C540.216 447.018 540.04 447.018 539.934 446.909Z" stroke="#E0E0E0" stroke-width="3.74566"/>
<path d="M528.765 472.578L527.473 459.561C527.183 456.645 525.653 453.994 523.272 452.285L506.385 440.163C503.782 438.294 500.185 438.706 498.071 441.114V441.114M528.765 472.578H508.664M528.765 472.578V472.578C530.627 472.578 532.137 474.087 532.137 475.949V483.482C532.137 484.631 531.205 485.563 530.056 485.563H511.785C508.199 485.563 505.293 482.656 505.293 479.071V475.949C505.293 474.087 506.802 472.578 508.664 472.578V472.578M506.916 451.977L498.32 444.609C497.278 443.716 497.167 442.145 498.071 441.114V441.114M508.664 472.578L507.909 470.854C507.256 469.361 506.256 468.047 504.99 467.021L490.213 455.037C487.826 453.101 486.439 450.192 486.439 447.118V419.22C486.439 417.659 487.705 416.393 489.266 416.393V416.393C490.545 416.393 491.664 417.252 491.996 418.487L498.071 441.114" stroke="#E0E0E0" stroke-width="3.74566" stroke-linecap="round"/>
<path d="M551.49 472.578L552.783 459.561C553.072 456.645 554.603 453.994 556.984 452.285L573.871 440.163C576.474 438.294 580.071 438.706 582.184 441.114V441.114M551.49 472.578H571.592M551.49 472.578V472.578C549.629 472.578 548.119 474.087 548.119 475.949V483.482C548.119 484.631 549.051 485.563 550.2 485.563H568.471C572.056 485.563 574.963 482.656 574.963 479.071V475.949C574.963 474.087 573.454 472.578 571.592 472.578V472.578M573.34 451.977L581.936 444.609C582.977 443.716 583.089 442.145 582.184 441.114V441.114M571.592 472.578L572.346 470.854C572.999 469.361 574 468.047 575.266 467.021L590.042 455.037C592.43 453.101 593.816 450.192 593.816 447.118V419.22C593.816 417.659 592.551 416.393 590.99 416.393V416.393C589.711 416.393 588.592 417.252 588.26 418.487L582.184 441.114" stroke="#E0E0E0" stroke-width="3.74566" stroke-linecap="round"/>
<path d="M539.934 230.909L511.687 202.061C507.829 198.121 505.668 192.826 505.668 187.311C505.668 182.486 507.559 177.853 510.934 174.405L513.175 172.117C518.511 166.667 527.285 166.667 532.621 172.117L539.934 179.585C540.04 179.694 540.216 179.694 540.323 179.585L547.635 172.117C552.972 166.667 561.745 166.667 567.081 172.117L569.149 174.229C572.636 177.79 574.588 182.575 574.588 187.558V187.849C574.588 193.019 572.563 197.983 568.946 201.677L540.323 230.909C540.216 231.018 540.04 231.018 539.934 230.909Z" stroke="#E0E0E0" stroke-width="3.74566"/>
<path d="M528.765 256.578L527.473 243.561C527.183 240.645 525.653 237.994 523.272 236.285L506.385 224.163C503.782 222.294 500.185 222.706 498.071 225.114V225.114M528.765 256.578H508.664M528.765 256.578V256.578C530.627 256.578 532.137 258.087 532.137 259.949V267.482C532.137 268.631 531.205 269.563 530.056 269.563H511.785C508.199 269.563 505.293 266.656 505.293 263.071V259.949C505.293 258.087 506.802 256.578 508.664 256.578V256.578M506.916 235.977L498.32 228.609C497.278 227.716 497.167 226.145 498.071 225.114V225.114M508.664 256.578L507.909 254.854C507.256 253.361 506.256 252.047 504.99 251.021L490.213 239.037C487.826 237.101 486.439 234.192 486.439 231.118V203.22C486.439 201.659 487.705 200.393 489.266 200.393V200.393C490.545 200.393 491.664 201.252 491.996 202.487L498.071 225.114" stroke="#E0E0E0" stroke-width="3.74566" stroke-linecap="round"/>
<path d="M551.49 256.578L552.783 243.561C553.072 240.645 554.603 237.994 556.984 236.285L573.871 224.163C576.474 222.294 580.071 222.706 582.184 225.114V225.114M551.49 256.578H571.592M551.49 256.578V256.578C549.629 256.578 548.119 258.087 548.119 259.949V267.482C548.119 268.631 549.051 269.563 550.2 269.563H568.471C572.056 269.563 574.963 266.656 574.963 263.071V259.949C574.963 258.087 573.454 256.578 571.592 256.578V256.578M573.34 235.977L581.936 228.609C582.977 227.716 583.089 226.145 582.184 225.114V225.114M571.592 256.578L572.346 254.854C572.999 253.361 574 252.047 575.266 251.021L590.042 239.037C592.43 237.101 593.816 234.192 593.816 231.118V203.22C593.816 201.659 592.551 200.393 590.99 200.393V200.393C589.711 200.393 588.592 201.252 588.26 202.487L582.184 225.114" stroke="#E0E0E0" stroke-width="3.74566" stroke-linecap="round"/>
<path d="M755.934 338.909L727.687 310.061C723.829 306.121 721.668 300.826 721.668 295.311C721.668 290.486 723.559 285.853 726.934 282.405L729.175 280.117C734.511 274.667 743.285 274.667 748.621 280.117L755.934 287.585C756.04 287.694 756.216 287.694 756.323 287.585L763.635 280.117C768.972 274.667 777.745 274.667 783.081 280.117L785.149 282.229C788.636 285.79 790.588 290.575 790.588 295.558V295.849C790.588 301.019 788.563 305.983 784.946 309.677L756.323 338.909C756.216 339.018 756.04 339.018 755.934 338.909Z" stroke="#E0E0E0" stroke-width="3.74566"/>
<path d="M744.765 364.578L743.473 351.561C743.183 348.645 741.653 345.994 739.272 344.285L722.385 332.163C719.782 330.294 716.185 330.706 714.071 333.114V333.114M744.765 364.578H724.664M744.765 364.578V364.578C746.627 364.578 748.137 366.087 748.137 367.949V375.482C748.137 376.631 747.205 377.563 746.056 377.563H727.785C724.199 377.563 721.293 374.656 721.293 371.071V367.949C721.293 366.087 722.802 364.578 724.664 364.578V364.578M722.916 343.977L714.32 336.609C713.278 335.716 713.167 334.145 714.071 333.114V333.114M724.664 364.578L723.909 362.854C723.256 361.361 722.256 360.047 720.99 359.021L706.213 347.037C703.826 345.101 702.439 342.192 702.439 339.118V311.22C702.439 309.659 703.705 308.393 705.266 308.393V308.393C706.545 308.393 707.664 309.252 707.996 310.487L714.071 333.114" stroke="#E0E0E0" stroke-width="3.74566" stroke-linecap="round"/>
<path d="M767.49 364.578L768.783 351.561C769.072 348.645 770.603 345.994 772.984 344.285L789.871 332.163C792.474 330.294 796.071 330.706 798.184 333.114V333.114M767.49 364.578H787.592M767.49 364.578V364.578C765.629 364.578 764.119 366.087 764.119 367.949V375.482C764.119 376.631 765.051 377.563 766.2 377.563H784.471C788.056 377.563 790.963 374.656 790.963 371.071V367.949C790.963 366.087 789.454 364.578 787.592 364.578V364.578M789.34 343.977L797.936 336.609C798.977 335.716 799.089 334.145 798.184 333.114V333.114M787.592 364.578L788.346 362.854C788.999 361.361 790 360.047 791.266 359.021L806.042 347.037C808.43 345.101 809.816 342.192 809.816 339.118V311.22C809.816 309.659 808.551 308.393 806.99 308.393V308.393C805.711 308.393 804.592 309.252 804.26 310.487L798.184 333.114" stroke="#E0E0E0" stroke-width="3.74566" stroke-linecap="round"/>
<path d="M755.934 122.909L727.687 94.061C723.829 90.1208 721.668 84.8258 721.668 79.3114C721.668 74.4862 723.559 69.8531 726.934 66.4055L729.175 64.1171C734.511 58.6671 743.285 58.6671 748.621 64.1171L755.934 71.5853C756.04 71.6943 756.216 71.6943 756.323 71.5853L763.635 64.1171C768.972 58.6671 777.745 58.6671 783.081 64.1171L785.149 66.2293C788.636 69.7899 790.588 74.5747 790.588 79.5579V79.849C790.588 85.0189 788.563 89.9829 784.946 93.6768L756.323 122.909C756.216 123.018 756.04 123.018 755.934 122.909Z" stroke="#E0E0E0" stroke-width="3.74566"/>
<path d="M744.765 148.578L743.473 135.561C743.183 132.645 741.653 129.994 739.272 128.285L722.385 116.163C719.782 114.294 716.185 114.706 714.071 117.114V117.114M744.765 148.578H724.664M744.765 148.578V148.578C746.627 148.578 748.137 150.087 748.137 151.949V159.482C748.137 160.631 747.205 161.563 746.056 161.563H727.785C724.199 161.563 721.293 158.656 721.293 155.071V151.949C721.293 150.087 722.802 148.578 724.664 148.578V148.578M722.916 127.977L714.32 120.609C713.278 119.716 713.167 118.145 714.071 117.114V117.114M724.664 148.578L723.909 146.854C723.256 145.361 722.256 144.047 720.99 143.021L706.213 131.037C703.826 129.101 702.439 126.192 702.439 123.118V95.2196C702.439 93.6585 703.705 92.3931 705.266 92.3931V92.3931C706.545 92.3931 707.664 93.2516 707.996 94.4866L714.071 117.114" stroke="#E0E0E0" stroke-width="3.74566" stroke-linecap="round"/>
<path d="M767.49 148.578L768.783 135.561C769.072 132.645 770.603 129.994 772.984 128.285L789.871 116.163C792.474 114.294 796.071 114.706 798.184 117.114V117.114M767.49 148.578H787.592M767.49 148.578V148.578C765.629 148.578 764.119 150.087 764.119 151.949V159.482C764.119 160.631 765.051 161.563 766.2 161.563H784.471C788.056 161.563 790.963 158.656 790.963 155.071V151.949C790.963 150.087 789.454 148.578 787.592 148.578V148.578M789.34 127.977L797.936 120.609C798.977 119.716 799.089 118.145 798.184 117.114V117.114M787.592 148.578L788.346 146.854C788.999 145.361 790 144.047 791.266 143.021L806.042 131.037C808.43 129.101 809.816 126.192 809.816 123.118V95.2196C809.816 93.6585 808.551 92.3931 806.99 92.3931V92.3931C805.711 92.3931 804.592 93.2516 804.26 94.4866L798.184 117.114" stroke="#E0E0E0" stroke-width="3.74566" stroke-linecap="round"/>
<path d="M755.934 554.909L727.687 526.061C723.829 522.121 721.668 516.826 721.668 511.311C721.668 506.486 723.559 501.853 726.934 498.405L729.175 496.117C734.511 490.667 743.285 490.667 748.621 496.117L755.934 503.585C756.04 503.694 756.216 503.694 756.323 503.585L763.635 496.117C768.972 490.667 777.745 490.667 783.081 496.117L785.149 498.229C788.636 501.79 790.588 506.575 790.588 511.558V511.849C790.588 517.019 788.563 521.983 784.946 525.677L756.323 554.909C756.216 555.018 756.04 555.018 755.934 554.909Z" stroke="#E0E0E0" stroke-width="3.74566"/>
<path d="M744.765 580.578L743.473 567.561C743.183 564.645 741.653 561.994 739.272 560.285L722.385 548.163C719.782 546.294 716.185 546.706 714.071 549.114V549.114M744.765 580.578H724.664M744.765 580.578V580.578C746.627 580.578 748.137 582.087 748.137 583.949V591.482C748.137 592.631 747.205 593.563 746.056 593.563H727.785C724.199 593.563 721.293 590.656 721.293 587.071V583.949C721.293 582.087 722.802 580.578 724.664 580.578V580.578M722.916 559.977L714.32 552.609C713.278 551.716 713.167 550.145 714.071 549.114V549.114M724.664 580.578L723.909 578.854C723.256 577.361 722.256 576.047 720.99 575.021L706.213 563.037C703.826 561.101 702.439 558.192 702.439 555.118V527.22C702.439 525.659 703.705 524.393 705.266 524.393V524.393C706.545 524.393 707.664 525.252 707.996 526.487L714.071 549.114" stroke="#E0E0E0" stroke-width="3.74566" stroke-linecap="round"/>
<path d="M767.49 580.578L768.783 567.561C769.072 564.645 770.603 561.994 772.984 560.285L789.871 548.163C792.474 546.294 796.071 546.706 798.184 549.114V549.114M767.49 580.578H787.592M767.49 580.578V580.578C765.629 580.578 764.119 582.087 764.119 583.949V591.482C764.119 592.631 765.051 593.563 766.2 593.563H784.471C788.056 593.563 790.963 590.656 790.963 587.071V583.949C790.963 582.087 789.454 580.578 787.592 580.578V580.578M789.34 559.977L797.936 552.609C798.977 551.716 799.089 550.145 798.184 549.114V549.114M787.592 580.578L788.346 578.854C788.999 577.361 790 576.047 791.266 575.021L806.042 563.037C808.43 561.101 809.816 558.192 809.816 555.118V527.22C809.816 525.659 808.551 524.393 806.99 524.393V524.393C805.711 524.393 804.592 525.252 804.26 526.487L798.184 549.114" stroke="#E0E0E0" stroke-width="3.74566" stroke-linecap="round"/>
<path d="M755.934 770.909L727.687 742.061C723.829 738.121 721.668 732.826 721.668 727.311C721.668 722.486 723.559 717.853 726.934 714.405L729.175 712.117C734.511 706.667 743.285 706.667 748.621 712.117L755.934 719.585C756.04 719.694 756.216 719.694 756.323 719.585L763.635 712.117C768.972 706.667 777.745 706.667 783.081 712.117L785.149 714.229C788.636 717.79 790.588 722.575 790.588 727.558V727.849C790.588 733.019 788.563 737.983 784.946 741.677L756.323 770.909C756.216 771.018 756.04 771.018 755.934 770.909Z" stroke="#E0E0E0" stroke-width="3.74566"/>
<path d="M744.765 796.578L743.473 783.561C743.183 780.645 741.653 777.994 739.272 776.285L722.385 764.163C719.782 762.294 716.185 762.706 714.071 765.114V765.114M744.765 796.578H724.664M744.765 796.578V796.578C746.627 796.578 748.137 798.087 748.137 799.949V807.482C748.137 808.631 747.205 809.563 746.056 809.563H727.785C724.199 809.563 721.293 806.656 721.293 803.07V799.949C721.293 798.087 722.802 796.578 724.664 796.578V796.578M722.916 775.977L714.32 768.609C713.278 767.716 713.167 766.145 714.071 765.114V765.114M724.664 796.578L723.909 794.854C723.256 793.361 722.256 792.047 720.99 791.021L706.213 779.037C703.826 777.101 702.439 774.192 702.439 771.118V743.219C702.439 741.658 703.705 740.393 705.266 740.393V740.393C706.545 740.393 707.664 741.251 707.996 742.486L714.071 765.114" stroke="#E0E0E0" stroke-width="3.74566" stroke-linecap="round"/>
<path d="M767.49 796.578L768.783 783.561C769.072 780.645 770.603 777.994 772.984 776.285L789.871 764.163C792.474 762.294 796.071 762.706 798.184 765.114V765.114M767.49 796.578H787.592M767.49 796.578V796.578C765.629 796.578 764.119 798.087 764.119 799.949V807.482C764.119 808.631 765.051 809.563 766.2 809.563H784.471C788.056 809.563 790.963 806.656 790.963 803.07V799.949C790.963 798.087 789.454 796.578 787.592 796.578V796.578M789.34 775.977L797.936 768.609C798.977 767.716 799.089 766.145 798.184 765.114V765.114M787.592 796.578L788.346 794.854C788.999 793.361 790 792.047 791.266 791.021L806.042 779.037C808.43 777.101 809.816 774.192 809.816 771.118V743.219C809.816 741.658 808.551 740.393 806.99 740.393V740.393C805.711 740.393 804.592 741.251 804.26 742.486L798.184 765.114" stroke="#E0E0E0" stroke-width="3.74566" stroke-linecap="round"/>
<path d="M755.934 986.909L727.687 958.061C723.829 954.121 721.668 948.826 721.668 943.311C721.668 938.486 723.559 933.853 726.934 930.405L729.175 928.117C734.511 922.667 743.285 922.667 748.621 928.117L755.934 935.585C756.04 935.694 756.216 935.694 756.323 935.585L763.635 928.117C768.972 922.667 777.745 922.667 783.081 928.117L785.149 930.229C788.636 933.79 790.588 938.575 790.588 943.558V943.849C790.588 949.019 788.563 953.983 784.946 957.677L756.323 986.909C756.216 987.018 756.04 987.018 755.934 986.909Z" stroke="#E0E0E0" stroke-width="3.74566"/>
<path d="M744.765 1012.58L743.473 999.561C743.183 996.645 741.653 993.994 739.272 992.285L722.385 980.163C719.782 978.294 716.185 978.706 714.071 981.114V981.114M744.765 1012.58H724.664M744.765 1012.58V1012.58C746.627 1012.58 748.137 1014.09 748.137 1015.95V1023.48C748.137 1024.63 747.205 1025.56 746.056 1025.56H727.785C724.199 1025.56 721.293 1022.66 721.293 1019.07V1015.95C721.293 1014.09 722.802 1012.58 724.664 1012.58V1012.58M722.916 991.977L714.32 984.609C713.278 983.716 713.167 982.145 714.071 981.114V981.114M724.664 1012.58L723.909 1010.85C723.256 1009.36 722.256 1008.05 720.99 1007.02L706.213 995.037C703.826 993.101 702.439 990.192 702.439 987.118V959.219C702.439 957.658 703.705 956.393 705.266 956.393V956.393C706.545 956.393 707.664 957.251 707.996 958.486L714.071 981.114" stroke="#E0E0E0" stroke-width="3.74566" stroke-linecap="round"/>
<path d="M767.49 1012.58L768.783 999.561C769.072 996.645 770.603 993.994 772.984 992.285L789.871 980.163C792.474 978.294 796.071 978.706 798.184 981.114V981.114M767.49 1012.58H787.592M767.49 1012.58V1012.58C765.629 1012.58 764.119 1014.09 764.119 1015.95V1023.48C764.119 1024.63 765.051 1025.56 766.2 1025.56H784.471C788.056 1025.56 790.963 1022.66 790.963 1019.07V1015.95C790.963 1014.09 789.454 1012.58 787.592 1012.58V1012.58M789.34 991.977L797.936 984.609C798.977 983.716 799.089 982.145 798.184 981.114V981.114M787.592 1012.58L788.346 1010.85C788.999 1009.36 790 1008.05 791.266 1007.02L806.042 995.037C808.43 993.101 809.816 990.192 809.816 987.118V959.219C809.816 957.658 808.551 956.393 806.99 956.393V956.393C805.711 956.393 804.592 957.251 804.26 958.486L798.184 981.114" stroke="#E0E0E0" stroke-width="3.74566" stroke-linecap="round"/>
<path d="M971.934 878.909L943.687 850.061C939.829 846.121 937.668 840.826 937.668 835.311C937.668 830.486 939.559 825.853 942.934 822.405L945.175 820.117C950.511 814.667 959.285 814.667 964.621 820.117L971.934 827.585C972.04 827.694 972.216 827.694 972.323 827.585L979.635 820.117C984.972 814.667 993.745 814.667 999.081 820.117L1001.15 822.229C1004.64 825.79 1006.59 830.575 1006.59 835.558V835.849C1006.59 841.019 1004.56 845.983 1000.95 849.677L972.323 878.909C972.216 879.018 972.04 879.018 971.934 878.909Z" stroke="#E0E0E0" stroke-width="3.74566"/>
<path d="M960.765 904.578L959.473 891.561C959.183 888.645 957.653 885.994 955.272 884.285L938.385 872.163C935.782 870.294 932.185 870.706 930.071 873.114V873.114M960.765 904.578H940.664M960.765 904.578V904.578C962.627 904.578 964.137 906.087 964.137 907.949V915.482C964.137 916.631 963.205 917.563 962.056 917.563H943.785C940.199 917.563 937.293 914.656 937.293 911.07V907.949C937.293 906.087 938.802 904.578 940.664 904.578V904.578M938.916 883.977L930.32 876.609C929.278 875.716 929.167 874.145 930.071 873.114V873.114M940.664 904.578L939.909 902.854C939.256 901.361 938.256 900.047 936.99 899.021L922.213 887.037C919.826 885.101 918.439 882.192 918.439 879.118V851.219C918.439 849.658 919.705 848.393 921.266 848.393V848.393C922.545 848.393 923.664 849.251 923.996 850.486L930.071 873.114" stroke="#E0E0E0" stroke-width="3.74566" stroke-linecap="round"/>
<path d="M983.49 904.578L984.783 891.561C985.072 888.645 986.603 885.994 988.984 884.285L1005.87 872.163C1008.47 870.294 1012.07 870.706 1014.18 873.114V873.114M983.49 904.578H1003.59M983.49 904.578V904.578C981.629 904.578 980.119 906.087 980.119 907.949V915.482C980.119 916.631 981.051 917.563 982.2 917.563H1000.47C1004.06 917.563 1006.96 914.656 1006.96 911.07V907.949C1006.96 906.087 1005.45 904.578 1003.59 904.578V904.578M1005.34 883.977L1013.94 876.609C1014.98 875.716 1015.09 874.145 1014.18 873.114V873.114M1003.59 904.578L1004.35 902.854C1005 901.361 1006 900.047 1007.27 899.021L1022.04 887.037C1024.43 885.101 1025.82 882.192 1025.82 879.118V851.219C1025.82 849.658 1024.55 848.393 1022.99 848.393V848.393C1021.71 848.393 1020.59 849.251 1020.26 850.486L1014.18 873.114" stroke="#E0E0E0" stroke-width="3.74566" stroke-linecap="round"/>
<path d="M971.934 662.909L943.687 634.061C939.829 630.121 937.668 624.826 937.668 619.311C937.668 614.486 939.559 609.853 942.934 606.405L945.175 604.117C950.511 598.667 959.285 598.667 964.621 604.117L971.934 611.585C972.04 611.694 972.216 611.694 972.323 611.585L979.635 604.117C984.972 598.667 993.745 598.667 999.081 604.117L1001.15 606.229C1004.64 609.79 1006.59 614.575 1006.59 619.558V619.849C1006.59 625.019 1004.56 629.983 1000.95 633.677L972.323 662.909C972.216 663.018 972.04 663.018 971.934 662.909Z" stroke="#E0E0E0" stroke-width="3.74566"/>
<path d="M960.765 688.578L959.473 675.561C959.183 672.645 957.653 669.994 955.272 668.285L938.385 656.163C935.782 654.294 932.185 654.706 930.071 657.114V657.114M960.765 688.578H940.664M960.765 688.578V688.578C962.627 688.578 964.137 690.087 964.137 691.949V699.482C964.137 700.631 963.205 701.563 962.056 701.563H943.785C940.199 701.563 937.293 698.656 937.293 695.07V691.949C937.293 690.087 938.802 688.578 940.664 688.578V688.578M938.916 667.977L930.32 660.609C929.278 659.716 929.167 658.145 930.071 657.114V657.114M940.664 688.578L939.909 686.854C939.256 685.361 938.256 684.047 936.99 683.021L922.213 671.037C919.826 669.101 918.439 666.192 918.439 663.118V635.219C918.439 633.658 919.705 632.393 921.266 632.393V632.393C922.545 632.393 923.664 633.251 923.996 634.486L930.071 657.114" stroke="#E0E0E0" stroke-width="3.74566" stroke-linecap="round"/>
<path d="M983.49 688.578L984.783 675.561C985.072 672.645 986.603 669.994 988.984 668.285L1005.87 656.163C1008.47 654.294 1012.07 654.706 1014.18 657.114V657.114M983.49 688.578H1003.59M983.49 688.578V688.578C981.629 688.578 980.119 690.087 980.119 691.949V699.482C980.119 700.631 981.051 701.563 982.2 701.563H1000.47C1004.06 701.563 1006.96 698.656 1006.96 695.07V691.949C1006.96 690.087 1005.45 688.578 1003.59 688.578V688.578M1005.34 667.977L1013.94 660.609C1014.98 659.716 1015.09 658.145 1014.18 657.114V657.114M1003.59 688.578L1004.35 686.854C1005 685.361 1006 684.047 1007.27 683.021L1022.04 671.037C1024.43 669.101 1025.82 666.192 1025.82 663.118V635.219C1025.82 633.658 1024.55 632.393 1022.99 632.393V632.393C1021.71 632.393 1020.59 633.251 1020.26 634.486L1014.18 657.114" stroke="#E0E0E0" stroke-width="3.74566" stroke-linecap="round"/>
<path d="M971.934 446.909L943.687 418.061C939.829 414.121 937.668 408.826 937.668 403.311C937.668 398.486 939.559 393.853 942.934 390.405L945.175 388.117C950.511 382.667 959.285 382.667 964.621 388.117L971.934 395.585C972.04 395.694 972.216 395.694 972.323 395.585L979.635 388.117C984.972 382.667 993.745 382.667 999.081 388.117L1001.15 390.229C1004.64 393.79 1006.59 398.575 1006.59 403.558V403.849C1006.59 409.019 1004.56 413.983 1000.95 417.677L972.323 446.909C972.216 447.018 972.04 447.018 971.934 446.909Z" stroke="#E0E0E0" stroke-width="3.74566"/>
<path d="M960.765 472.578L959.473 459.561C959.183 456.645 957.653 453.994 955.272 452.285L938.385 440.163C935.782 438.294 932.185 438.706 930.071 441.114V441.114M960.765 472.578H940.664M960.765 472.578V472.578C962.627 472.578 964.137 474.087 964.137 475.949V483.482C964.137 484.631 963.205 485.563 962.056 485.563H943.785C940.199 485.563 937.293 482.656 937.293 479.071V475.949C937.293 474.087 938.802 472.578 940.664 472.578V472.578M938.916 451.977L930.32 444.609C929.278 443.716 929.167 442.145 930.071 441.114V441.114M940.664 472.578L939.909 470.854C939.256 469.361 938.256 468.047 936.99 467.021L922.213 455.037C919.826 453.101 918.439 450.192 918.439 447.118V419.22C918.439 417.659 919.705 416.393 921.266 416.393V416.393C922.545 416.393 923.664 417.252 923.996 418.487L930.071 441.114" stroke="#E0E0E0" stroke-width="3.74566" stroke-linecap="round"/>
<path d="M983.49 472.578L984.783 459.561C985.072 456.645 986.603 453.994 988.984 452.285L1005.87 440.163C1008.47 438.294 1012.07 438.706 1014.18 441.114V441.114M983.49 472.578H1003.59M983.49 472.578V472.578C981.629 472.578 980.119 474.087 980.119 475.949V483.482C980.119 484.631 981.051 485.563 982.2 485.563H1000.47C1004.06 485.563 1006.96 482.656 1006.96 479.071V475.949C1006.96 474.087 1005.45 472.578 1003.59 472.578V472.578M1005.34 451.977L1013.94 444.609C1014.98 443.716 1015.09 442.145 1014.18 441.114V441.114M1003.59 472.578L1004.35 470.854C1005 469.361 1006 468.047 1007.27 467.021L1022.04 455.037C1024.43 453.101 1025.82 450.192 1025.82 447.118V419.22C1025.82 417.659 1024.55 416.393 1022.99 416.393V416.393C1021.71 416.393 1020.59 417.252 1020.26 418.487L1014.18 441.114" stroke="#E0E0E0" stroke-width="3.74566" stroke-linecap="round"/>
<path d="M971.934 230.909L943.687 202.061C939.829 198.121 937.668 192.826 937.668 187.311C937.668 182.486 939.559 177.853 942.934 174.405L945.175 172.117C950.511 166.667 959.285 166.667 964.621 172.117L971.934 179.585C972.04 179.694 972.216 179.694 972.323 179.585L979.635 172.117C984.972 166.667 993.745 166.667 999.081 172.117L1001.15 174.229C1004.64 177.79 1006.59 182.575 1006.59 187.558V187.849C1006.59 193.019 1004.56 197.983 1000.95 201.677L972.323 230.909C972.216 231.018 972.04 231.018 971.934 230.909Z" stroke="#E0E0E0" stroke-width="3.74566"/>
<path d="M960.765 256.578L959.473 243.561C959.183 240.645 957.653 237.994 955.272 236.285L938.385 224.163C935.782 222.294 932.185 222.706 930.071 225.114V225.114M960.765 256.578H940.664M960.765 256.578V256.578C962.627 256.578 964.137 258.087 964.137 259.949V267.482C964.137 268.631 963.205 269.563 962.056 269.563H943.785C940.199 269.563 937.293 266.656 937.293 263.071V259.949C937.293 258.087 938.802 256.578 940.664 256.578V256.578M938.916 235.977L930.32 228.609C929.278 227.716 929.167 226.145 930.071 225.114V225.114M940.664 256.578L939.909 254.854C939.256 253.361 938.256 252.047 936.99 251.021L922.213 239.037C919.826 237.101 918.439 234.192 918.439 231.118V203.22C918.439 201.659 919.705 200.393 921.266 200.393V200.393C922.545 200.393 923.664 201.252 923.996 202.487L930.071 225.114" stroke="#E0E0E0" stroke-width="3.74566" stroke-linecap="round"/>
<path d="M983.49 256.578L984.783 243.561C985.072 240.645 986.603 237.994 988.984 236.285L1005.87 224.163C1008.47 222.294 1012.07 222.706 1014.18 225.114V225.114M983.49 256.578H1003.59M983.49 256.578V256.578C981.629 256.578 980.119 258.087 980.119 259.949V267.482C980.119 268.631 981.051 269.563 982.2 269.563H1000.47C1004.06 269.563 1006.96 266.656 1006.96 263.071V259.949C1006.96 258.087 1005.45 256.578 1003.59 256.578V256.578M1005.34 235.977L1013.94 228.609C1014.98 227.716 1015.09 226.145 1014.18 225.114V225.114M1003.59 256.578L1004.35 254.854C1005 253.361 1006 252.047 1007.27 251.021L1022.04 239.037C1024.43 237.101 1025.82 234.192 1025.82 231.118V203.22C1025.82 201.659 1024.55 200.393 1022.99 200.393V200.393C1021.71 200.393 1020.59 201.252 1020.26 202.487L1014.18 225.114" stroke="#E0E0E0" stroke-width="3.74566" stroke-linecap="round"/>
<path d="M1187.93 338.909L1159.69 310.061C1155.83 306.121 1153.67 300.826 1153.67 295.311C1153.67 290.486 1155.56 285.853 1158.93 282.405L1161.18 280.117C1166.51 274.667 1175.28 274.667 1180.62 280.117L1187.93 287.585C1188.04 287.694 1188.22 287.694 1188.32 287.585L1195.64 280.117C1200.97 274.667 1209.74 274.667 1215.08 280.117L1217.15 282.229C1220.64 285.79 1222.59 290.575 1222.59 295.558V295.849C1222.59 301.019 1220.56 305.983 1216.95 309.677L1188.32 338.909C1188.22 339.018 1188.04 339.018 1187.93 338.909Z" stroke="#E0E0E0" stroke-width="3.74566"/>
<path d="M1176.77 364.578L1175.47 351.561C1175.18 348.645 1173.65 345.994 1171.27 344.285L1154.38 332.163C1151.78 330.294 1148.19 330.706 1146.07 333.114V333.114M1176.77 364.578H1156.66M1176.77 364.578V364.578C1178.63 364.578 1180.14 366.087 1180.14 367.949V375.482C1180.14 376.631 1179.2 377.563 1178.06 377.563H1159.79C1156.2 377.563 1153.29 374.656 1153.29 371.071V367.949C1153.29 366.087 1154.8 364.578 1156.66 364.578V364.578M1154.92 343.977L1146.32 336.609C1145.28 335.716 1145.17 334.145 1146.07 333.114V333.114M1156.66 364.578L1155.91 362.854C1155.26 361.361 1154.26 360.047 1152.99 359.021L1138.21 347.037C1135.83 345.101 1134.44 342.192 1134.44 339.118V311.22C1134.44 309.659 1135.7 308.393 1137.27 308.393V308.393C1138.54 308.393 1139.66 309.252 1140 310.487L1146.07 333.114" stroke="#E0E0E0" stroke-width="3.74566" stroke-linecap="round"/>
<path d="M1199.49 364.578L1200.78 351.561C1201.07 348.645 1202.6 345.994 1204.98 344.285L1221.87 332.163C1224.47 330.294 1228.07 330.706 1230.18 333.114V333.114M1199.49 364.578H1219.59M1199.49 364.578V364.578C1197.63 364.578 1196.12 366.087 1196.12 367.949V375.482C1196.12 376.631 1197.05 377.563 1198.2 377.563H1216.47C1220.06 377.563 1222.96 374.656 1222.96 371.071V367.949C1222.96 366.087 1221.45 364.578 1219.59 364.578V364.578M1221.34 343.977L1229.94 336.609C1230.98 335.716 1231.09 334.145 1230.18 333.114V333.114M1219.59 364.578L1220.35 362.854C1221 361.361 1222 360.047 1223.27 359.021L1238.04 347.037C1240.43 345.101 1241.82 342.192 1241.82 339.118V311.22C1241.82 309.659 1240.55 308.393 1238.99 308.393V308.393C1237.71 308.393 1236.59 309.252 1236.26 310.487L1230.18 333.114" stroke="#E0E0E0" stroke-width="3.74566" stroke-linecap="round"/>
<path d="M1187.93 122.909L1159.69 94.061C1155.83 90.1208 1153.67 84.8258 1153.67 79.3114C1153.67 74.4862 1155.56 69.8531 1158.93 66.4055L1161.18 64.1171C1166.51 58.6671 1175.28 58.6671 1180.62 64.1171L1187.93 71.5853C1188.04 71.6943 1188.22 71.6943 1188.32 71.5853L1195.64 64.1171C1200.97 58.6671 1209.74 58.6671 1215.08 64.1171L1217.15 66.2293C1220.64 69.7899 1222.59 74.5747 1222.59 79.5579V79.849C1222.59 85.0189 1220.56 89.9829 1216.95 93.6768L1188.32 122.909C1188.22 123.018 1188.04 123.018 1187.93 122.909Z" stroke="#E0E0E0" stroke-width="3.74566"/>
<path d="M1176.77 148.578L1175.47 135.561C1175.18 132.645 1173.65 129.994 1171.27 128.285L1154.38 116.163C1151.78 114.294 1148.19 114.706 1146.07 117.114V117.114M1176.77 148.578H1156.66M1176.77 148.578V148.578C1178.63 148.578 1180.14 150.087 1180.14 151.949V159.482C1180.14 160.631 1179.2 161.563 1178.06 161.563H1159.79C1156.2 161.563 1153.29 158.656 1153.29 155.071V151.949C1153.29 150.087 1154.8 148.578 1156.66 148.578V148.578M1154.92 127.977L1146.32 120.609C1145.28 119.716 1145.17 118.145 1146.07 117.114V117.114M1156.66 148.578L1155.91 146.854C1155.26 145.361 1154.26 144.047 1152.99 143.021L1138.21 131.037C1135.83 129.101 1134.44 126.192 1134.44 123.118V95.2196C1134.44 93.6585 1135.7 92.3931 1137.27 92.3931V92.3931C1138.54 92.3931 1139.66 93.2516 1140 94.4866L1146.07 117.114" stroke="#E0E0E0" stroke-width="3.74566" stroke-linecap="round"/>
<path d="M1199.49 148.578L1200.78 135.561C1201.07 132.645 1202.6 129.994 1204.98 128.285L1221.87 116.163C1224.47 114.294 1228.07 114.706 1230.18 117.114V117.114M1199.49 148.578H1219.59M1199.49 148.578V148.578C1197.63 148.578 1196.12 150.087 1196.12 151.949V159.482C1196.12 160.631 1197.05 161.563 1198.2 161.563H1216.47C1220.06 161.563 1222.96 158.656 1222.96 155.071V151.949C1222.96 150.087 1221.45 148.578 1219.59 148.578V148.578M1221.34 127.977L1229.94 120.609C1230.98 119.716 1231.09 118.145 1230.18 117.114V117.114M1219.59 148.578L1220.35 146.854C1221 145.361 1222 144.047 1223.27 143.021L1238.04 131.037C1240.43 129.101 1241.82 126.192 1241.82 123.118V95.2196C1241.82 93.6585 1240.55 92.3931 1238.99 92.3931V92.3931C1237.71 92.3931 1236.59 93.2516 1236.26 94.4866L1230.18 117.114" stroke="#E0E0E0" stroke-width="3.74566" stroke-linecap="round"/>
<path d="M1187.93 554.909L1159.69 526.061C1155.83 522.121 1153.67 516.826 1153.67 511.311C1153.67 506.486 1155.56 501.853 1158.93 498.405L1161.18 496.117C1166.51 490.667 1175.28 490.667 1180.62 496.117L1187.93 503.585C1188.04 503.694 1188.22 503.694 1188.32 503.585L1195.64 496.117C1200.97 490.667 1209.74 490.667 1215.08 496.117L1217.15 498.229C1220.64 501.79 1222.59 506.575 1222.59 511.558V511.849C1222.59 517.019 1220.56 521.983 1216.95 525.677L1188.32 554.909C1188.22 555.018 1188.04 555.018 1187.93 554.909Z" stroke="#E0E0E0" stroke-width="3.74566"/>
<path d="M1176.77 580.578L1175.47 567.561C1175.18 564.645 1173.65 561.994 1171.27 560.285L1154.38 548.163C1151.78 546.294 1148.19 546.706 1146.07 549.114V549.114M1176.77 580.578H1156.66M1176.77 580.578V580.578C1178.63 580.578 1180.14 582.087 1180.14 583.949V591.482C1180.14 592.631 1179.2 593.563 1178.06 593.563H1159.79C1156.2 593.563 1153.29 590.656 1153.29 587.071V583.949C1153.29 582.087 1154.8 580.578 1156.66 580.578V580.578M1154.92 559.977L1146.32 552.609C1145.28 551.716 1145.17 550.145 1146.07 549.114V549.114M1156.66 580.578L1155.91 578.854C1155.26 577.361 1154.26 576.047 1152.99 575.021L1138.21 563.037C1135.83 561.101 1134.44 558.192 1134.44 555.118V527.22C1134.44 525.659 1135.7 524.393 1137.27 524.393V524.393C1138.54 524.393 1139.66 525.252 1140 526.487L1146.07 549.114" stroke="#E0E0E0" stroke-width="3.74566" stroke-linecap="round"/>
<path d="M1199.49 580.578L1200.78 567.561C1201.07 564.645 1202.6 561.994 1204.98 560.285L1221.87 548.163C1224.47 546.294 1228.07 546.706 1230.18 549.114V549.114M1199.49 580.578H1219.59M1199.49 580.578V580.578C1197.63 580.578 1196.12 582.087 1196.12 583.949V591.482C1196.12 592.631 1197.05 593.563 1198.2 593.563H1216.47C1220.06 593.563 1222.96 590.656 1222.96 587.071V583.949C1222.96 582.087 1221.45 580.578 1219.59 580.578V580.578M1221.34 559.977L1229.94 552.609C1230.98 551.716 1231.09 550.145 1230.18 549.114V549.114M1219.59 580.578L1220.35 578.854C1221 577.361 1222 576.047 1223.27 575.021L1238.04 563.037C1240.43 561.101 1241.82 558.192 1241.82 555.118V527.22C1241.82 525.659 1240.55 524.393 1238.99 524.393V524.393C1237.71 524.393 1236.59 525.252 1236.26 526.487L1230.18 549.114" stroke="#E0E0E0" stroke-width="3.74566" stroke-linecap="round"/>
<path d="M1187.93 770.909L1159.69 742.061C1155.83 738.121 1153.67 732.826 1153.67 727.311C1153.67 722.486 1155.56 717.853 1158.93 714.405L1161.18 712.117C1166.51 706.667 1175.28 706.667 1180.62 712.117L1187.93 719.585C1188.04 719.694 1188.22 719.694 1188.32 719.585L1195.64 712.117C1200.97 706.667 1209.74 706.667 1215.08 712.117L1217.15 714.229C1220.64 717.79 1222.59 722.575 1222.59 727.558V727.849C1222.59 733.019 1220.56 737.983 1216.95 741.677L1188.32 770.909C1188.22 771.018 1188.04 771.018 1187.93 770.909Z" stroke="#E0E0E0" stroke-width="3.74566"/>
<path d="M1176.77 796.578L1175.47 783.561C1175.18 780.645 1173.65 777.994 1171.27 776.285L1154.38 764.163C1151.78 762.294 1148.19 762.706 1146.07 765.114V765.114M1176.77 796.578H1156.66M1176.77 796.578V796.578C1178.63 796.578 1180.14 798.087 1180.14 799.949V807.482C1180.14 808.631 1179.2 809.563 1178.06 809.563H1159.79C1156.2 809.563 1153.29 806.656 1153.29 803.07V799.949C1153.29 798.087 1154.8 796.578 1156.66 796.578V796.578M1154.92 775.977L1146.32 768.609C1145.28 767.716 1145.17 766.145 1146.07 765.114V765.114M1156.66 796.578L1155.91 794.854C1155.26 793.361 1154.26 792.047 1152.99 791.021L1138.21 779.037C1135.83 777.101 1134.44 774.192 1134.44 771.118V743.219C1134.44 741.658 1135.7 740.393 1137.27 740.393V740.393C1138.54 740.393 1139.66 741.251 1140 742.486L1146.07 765.114" stroke="#E0E0E0" stroke-width="3.74566" stroke-linecap="round"/>
<path d="M1199.49 796.578L1200.78 783.561C1201.07 780.645 1202.6 777.994 1204.98 776.285L1221.87 764.163C1224.47 762.294 1228.07 762.706 1230.18 765.114V765.114M1199.49 796.578H1219.59M1199.49 796.578V796.578C1197.63 796.578 1196.12 798.087 1196.12 799.949V807.482C1196.12 808.631 1197.05 809.563 1198.2 809.563H1216.47C1220.06 809.563 1222.96 806.656 1222.96 803.07V799.949C1222.96 798.087 1221.45 796.578 1219.59 796.578V796.578M1221.34 775.977L1229.94 768.609C1230.98 767.716 1231.09 766.145 1230.18 765.114V765.114M1219.59 796.578L1220.35 794.854C1221 793.361 1222 792.047 1223.27 791.021L1238.04 779.037C1240.43 777.101 1241.82 774.192 1241.82 771.118V743.219C1241.82 741.658 1240.55 740.393 1238.99 740.393V740.393C1237.71 740.393 1236.59 741.251 1236.26 742.486L1230.18 765.114" stroke="#E0E0E0" stroke-width="3.74566" stroke-linecap="round"/>
<path d="M1187.93 986.909L1159.69 958.061C1155.83 954.121 1153.67 948.826 1153.67 943.311C1153.67 938.486 1155.56 933.853 1158.93 930.405L1161.18 928.117C1166.51 922.667 1175.28 922.667 1180.62 928.117L1187.93 935.585C1188.04 935.694 1188.22 935.694 1188.32 935.585L1195.64 928.117C1200.97 922.667 1209.74 922.667 1215.08 928.117L1217.15 930.229C1220.64 933.79 1222.59 938.575 1222.59 943.558V943.849C1222.59 949.019 1220.56 953.983 1216.95 957.677L1188.32 986.909C1188.22 987.018 1188.04 987.018 1187.93 986.909Z" stroke="#E0E0E0" stroke-width="3.74566"/>
<path d="M1176.77 1012.58L1175.47 999.561C1175.18 996.645 1173.65 993.994 1171.27 992.285L1154.38 980.163C1151.78 978.294 1148.19 978.706 1146.07 981.114V981.114M1176.77 1012.58H1156.66M1176.77 1012.58V1012.58C1178.63 1012.58 1180.14 1014.09 1180.14 1015.95V1023.48C1180.14 1024.63 1179.2 1025.56 1178.06 1025.56H1159.79C1156.2 1025.56 1153.29 1022.66 1153.29 1019.07V1015.95C1153.29 1014.09 1154.8 1012.58 1156.66 1012.58V1012.58M1154.92 991.977L1146.32 984.609C1145.28 983.716 1145.17 982.145 1146.07 981.114V981.114M1156.66 1012.58L1155.91 1010.85C1155.26 1009.36 1154.26 1008.05 1152.99 1007.02L1138.21 995.037C1135.83 993.101 1134.44 990.192 1134.44 987.118V959.219C1134.44 957.658 1135.7 956.393 1137.27 956.393V956.393C1138.54 956.393 1139.66 957.251 1140 958.486L1146.07 981.114" stroke="#E0E0E0" stroke-width="3.74566" stroke-linecap="round"/>
<path d="M1199.49 1012.58L1200.78 999.561C1201.07 996.645 1202.6 993.994 1204.98 992.285L1221.87 980.163C1224.47 978.294 1228.07 978.706 1230.18 981.114V981.114M1199.49 1012.58H1219.59M1199.49 1012.58V1012.58C1197.63 1012.58 1196.12 1014.09 1196.12 1015.95V1023.48C1196.12 1024.63 1197.05 1025.56 1198.2 1025.56H1216.47C1220.06 1025.56 1222.96 1022.66 1222.96 1019.07V1015.95C1222.96 1014.09 1221.45 1012.58 1219.59 1012.58V1012.58M1221.34 991.977L1229.94 984.609C1230.98 983.716 1231.09 982.145 1230.18 981.114V981.114M1219.59 1012.58L1220.35 1010.85C1221 1009.36 1222 1008.05 1223.27 1007.02L1238.04 995.037C1240.43 993.101 1241.82 990.192 1241.82 987.118V959.219C1241.82 957.658 1240.55 956.393 1238.99 956.393V956.393C1237.71 956.393 1236.59 957.251 1236.26 958.486L1230.18 981.114" stroke="#E0E0E0" stroke-width="3.74566" stroke-linecap="round"/>
<path d="M1403.93 878.909L1375.69 850.061C1371.83 846.121 1369.67 840.826 1369.67 835.311C1369.67 830.486 1371.56 825.853 1374.93 822.405L1377.18 820.117C1382.51 814.667 1391.28 814.667 1396.62 820.117L1403.93 827.585C1404.04 827.694 1404.22 827.694 1404.32 827.585L1411.64 820.117C1416.97 814.667 1425.74 814.667 1431.08 820.117L1433.15 822.229C1436.64 825.79 1438.59 830.575 1438.59 835.558V835.849C1438.59 841.019 1436.56 845.983 1432.95 849.677L1404.32 878.909C1404.22 879.018 1404.04 879.018 1403.93 878.909Z" stroke="#E0E0E0" stroke-width="3.74566"/>
<path d="M1392.77 904.578L1391.47 891.561C1391.18 888.645 1389.65 885.994 1387.27 884.285L1370.38 872.163C1367.78 870.294 1364.19 870.706 1362.07 873.114V873.114M1392.77 904.578H1372.66M1392.77 904.578V904.578C1394.63 904.578 1396.14 906.087 1396.14 907.949V915.482C1396.14 916.631 1395.2 917.563 1394.06 917.563H1375.79C1372.2 917.563 1369.29 914.656 1369.29 911.07V907.949C1369.29 906.087 1370.8 904.578 1372.66 904.578V904.578M1370.92 883.977L1362.32 876.609C1361.28 875.716 1361.17 874.145 1362.07 873.114V873.114M1372.66 904.578L1371.91 902.854C1371.26 901.361 1370.26 900.047 1368.99 899.021L1354.21 887.037C1351.83 885.101 1350.44 882.192 1350.44 879.118V851.219C1350.44 849.658 1351.7 848.393 1353.27 848.393V848.393C1354.54 848.393 1355.66 849.251 1356 850.486L1362.07 873.114" stroke="#E0E0E0" stroke-width="3.74566" stroke-linecap="round"/>
<path d="M1415.49 904.578L1416.78 891.561C1417.07 888.645 1418.6 885.994 1420.98 884.285L1437.87 872.163C1440.47 870.294 1444.07 870.706 1446.18 873.114V873.114M1415.49 904.578H1435.59M1415.49 904.578V904.578C1413.63 904.578 1412.12 906.087 1412.12 907.949V915.482C1412.12 916.631 1413.05 917.563 1414.2 917.563H1432.47C1436.06 917.563 1438.96 914.656 1438.96 911.07V907.949C1438.96 906.087 1437.45 904.578 1435.59 904.578V904.578M1437.34 883.977L1445.94 876.609C1446.98 875.716 1447.09 874.145 1446.18 873.114V873.114M1435.59 904.578L1436.35 902.854C1437 901.361 1438 900.047 1439.27 899.021L1454.04 887.037C1456.43 885.101 1457.82 882.192 1457.82 879.118V851.219C1457.82 849.658 1456.55 848.393 1454.99 848.393V848.393C1453.71 848.393 1452.59 849.251 1452.26 850.486L1446.18 873.114" stroke="#E0E0E0" stroke-width="3.74566" stroke-linecap="round"/>
<path d="M1403.93 662.909L1375.69 634.061C1371.83 630.121 1369.67 624.826 1369.67 619.311C1369.67 614.486 1371.56 609.853 1374.93 606.405L1377.18 604.117C1382.51 598.667 1391.28 598.667 1396.62 604.117L1403.93 611.585C1404.04 611.694 1404.22 611.694 1404.32 611.585L1411.64 604.117C1416.97 598.667 1425.74 598.667 1431.08 604.117L1433.15 606.229C1436.64 609.79 1438.59 614.575 1438.59 619.558V619.849C1438.59 625.019 1436.56 629.983 1432.95 633.677L1404.32 662.909C1404.22 663.018 1404.04 663.018 1403.93 662.909Z" stroke="#E0E0E0" stroke-width="3.74566"/>
<path d="M1392.77 688.578L1391.47 675.561C1391.18 672.645 1389.65 669.994 1387.27 668.285L1370.38 656.163C1367.78 654.294 1364.19 654.706 1362.07 657.114V657.114M1392.77 688.578H1372.66M1392.77 688.578V688.578C1394.63 688.578 1396.14 690.087 1396.14 691.949V699.482C1396.14 700.631 1395.2 701.563 1394.06 701.563H1375.79C1372.2 701.563 1369.29 698.656 1369.29 695.07V691.949C1369.29 690.087 1370.8 688.578 1372.66 688.578V688.578M1370.92 667.977L1362.32 660.609C1361.28 659.716 1361.17 658.145 1362.07 657.114V657.114M1372.66 688.578L1371.91 686.854C1371.26 685.361 1370.26 684.047 1368.99 683.021L1354.21 671.037C1351.83 669.101 1350.44 666.192 1350.44 663.118V635.219C1350.44 633.658 1351.7 632.393 1353.27 632.393V632.393C1354.54 632.393 1355.66 633.251 1356 634.486L1362.07 657.114" stroke="#E0E0E0" stroke-width="3.74566" stroke-linecap="round"/>
<path d="M1415.49 688.578L1416.78 675.561C1417.07 672.645 1418.6 669.994 1420.98 668.285L1437.87 656.163C1440.47 654.294 1444.07 654.706 1446.18 657.114V657.114M1415.49 688.578H1435.59M1415.49 688.578V688.578C1413.63 688.578 1412.12 690.087 1412.12 691.949V699.482C1412.12 700.631 1413.05 701.563 1414.2 701.563H1432.47C1436.06 701.563 1438.96 698.656 1438.96 695.07V691.949C1438.96 690.087 1437.45 688.578 1435.59 688.578V688.578M1437.34 667.977L1445.94 660.609C1446.98 659.716 1447.09 658.145 1446.18 657.114V657.114M1435.59 688.578L1436.35 686.854C1437 685.361 1438 684.047 1439.27 683.021L1454.04 671.037C1456.43 669.101 1457.82 666.192 1457.82 663.118V635.219C1457.82 633.658 1456.55 632.393 1454.99 632.393V632.393C1453.71 632.393 1452.59 633.251 1452.26 634.486L1446.18 657.114" stroke="#E0E0E0" stroke-width="3.74566" stroke-linecap="round"/>
<path d="M1403.93 446.909L1375.69 418.061C1371.83 414.121 1369.67 408.826 1369.67 403.311C1369.67 398.486 1371.56 393.853 1374.93 390.405L1377.18 388.117C1382.51 382.667 1391.28 382.667 1396.62 388.117L1403.93 395.585C1404.04 395.694 1404.22 395.694 1404.32 395.585L1411.64 388.117C1416.97 382.667 1425.74 382.667 1431.08 388.117L1433.15 390.229C1436.64 393.79 1438.59 398.575 1438.59 403.558V403.849C1438.59 409.019 1436.56 413.983 1432.95 417.677L1404.32 446.909C1404.22 447.018 1404.04 447.018 1403.93 446.909Z" stroke="#E0E0E0" stroke-width="3.74566"/>
<path d="M1392.77 472.578L1391.47 459.561C1391.18 456.645 1389.65 453.994 1387.27 452.285L1370.38 440.163C1367.78 438.294 1364.19 438.706 1362.07 441.114V441.114M1392.77 472.578H1372.66M1392.77 472.578V472.578C1394.63 472.578 1396.14 474.087 1396.14 475.949V483.482C1396.14 484.631 1395.2 485.563 1394.06 485.563H1375.79C1372.2 485.563 1369.29 482.656 1369.29 479.071V475.949C1369.29 474.087 1370.8 472.578 1372.66 472.578V472.578M1370.92 451.977L1362.32 444.609C1361.28 443.716 1361.17 442.145 1362.07 441.114V441.114M1372.66 472.578L1371.91 470.854C1371.26 469.361 1370.26 468.047 1368.99 467.021L1354.21 455.037C1351.83 453.101 1350.44 450.192 1350.44 447.118V419.22C1350.44 417.659 1351.7 416.393 1353.27 416.393V416.393C1354.54 416.393 1355.66 417.252 1356 418.487L1362.07 441.114" stroke="#E0E0E0" stroke-width="3.74566" stroke-linecap="round"/>
<path d="M1415.49 472.578L1416.78 459.561C1417.07 456.645 1418.6 453.994 1420.98 452.285L1437.87 440.163C1440.47 438.294 1444.07 438.706 1446.18 441.114V441.114M1415.49 472.578H1435.59M1415.49 472.578V472.578C1413.63 472.578 1412.12 474.087 1412.12 475.949V483.482C1412.12 484.631 1413.05 485.563 1414.2 485.563H1432.47C1436.06 485.563 1438.96 482.656 1438.96 479.071V475.949C1438.96 474.087 1437.45 472.578 1435.59 472.578V472.578M1437.34 451.977L1445.94 444.609C1446.98 443.716 1447.09 442.145 1446.18 441.114V441.114M1435.59 472.578L1436.35 470.854C1437 469.361 1438 468.047 1439.27 467.021L1454.04 455.037C1456.43 453.101 1457.82 450.192 1457.82 447.118V419.22C1457.82 417.659 1456.55 416.393 1454.99 416.393V416.393C1453.71 416.393 1452.59 417.252 1452.26 418.487L1446.18 441.114" stroke="#E0E0E0" stroke-width="3.74566" stroke-linecap="round"/>
<path d="M1403.93 230.909L1375.69 202.061C1371.83 198.121 1369.67 192.826 1369.67 187.311C1369.67 182.486 1371.56 177.853 1374.93 174.405L1377.18 172.117C1382.51 166.667 1391.28 166.667 1396.62 172.117L1403.93 179.585C1404.04 179.694 1404.22 179.694 1404.32 179.585L1411.64 172.117C1416.97 166.667 1425.74 166.667 1431.08 172.117L1433.15 174.229C1436.64 177.79 1438.59 182.575 1438.59 187.558V187.849C1438.59 193.019 1436.56 197.983 1432.95 201.677L1404.32 230.909C1404.22 231.018 1404.04 231.018 1403.93 230.909Z" stroke="#E0E0E0" stroke-width="3.74566"/>
<path d="M1392.77 256.578L1391.47 243.561C1391.18 240.645 1389.65 237.994 1387.27 236.285L1370.38 224.163C1367.78 222.294 1364.19 222.706 1362.07 225.114V225.114M1392.77 256.578H1372.66M1392.77 256.578V256.578C1394.63 256.578 1396.14 258.087 1396.14 259.949V267.482C1396.14 268.631 1395.2 269.563 1394.06 269.563H1375.79C1372.2 269.563 1369.29 266.656 1369.29 263.071V259.949C1369.29 258.087 1370.8 256.578 1372.66 256.578V256.578M1370.92 235.977L1362.32 228.609C1361.28 227.716 1361.17 226.145 1362.07 225.114V225.114M1372.66 256.578L1371.91 254.854C1371.26 253.361 1370.26 252.047 1368.99 251.021L1354.21 239.037C1351.83 237.101 1350.44 234.192 1350.44 231.118V203.22C1350.44 201.659 1351.7 200.393 1353.27 200.393V200.393C1354.54 200.393 1355.66 201.252 1356 202.487L1362.07 225.114" stroke="#E0E0E0" stroke-width="3.74566" stroke-linecap="round"/>
<path d="M1415.49 256.578L1416.78 243.561C1417.07 240.645 1418.6 237.994 1420.98 236.285L1437.87 224.163C1440.47 222.294 1444.07 222.706 1446.18 225.114V225.114M1415.49 256.578H1435.59M1415.49 256.578V256.578C1413.63 256.578 1412.12 258.087 1412.12 259.949V267.482C1412.12 268.631 1413.05 269.563 1414.2 269.563H1432.47C1436.06 269.563 1438.96 266.656 1438.96 263.071V259.949C1438.96 258.087 1437.45 256.578 1435.59 256.578V256.578M1437.34 235.977L1445.94 228.609C1446.98 227.716 1447.09 226.145 1446.18 225.114V225.114M1435.59 256.578L1436.35 254.854C1437 253.361 1438 252.047 1439.27 251.021L1454.04 239.037C1456.43 237.101 1457.82 234.192 1457.82 231.118V203.22C1457.82 201.659 1456.55 200.393 1454.99 200.393V200.393C1453.71 200.393 1452.59 201.252 1452.26 202.487L1446.18 225.114" stroke="#E0E0E0" stroke-width="3.74566" stroke-linecap="round"/>
<path d="M1619.93 338.909L1591.69 310.061C1587.83 306.121 1585.67 300.826 1585.67 295.311C1585.67 290.486 1587.56 285.853 1590.93 282.405L1593.18 280.117C1598.51 274.667 1607.28 274.667 1612.62 280.117L1619.93 287.585C1620.04 287.694 1620.22 287.694 1620.32 287.585L1627.64 280.117C1632.97 274.667 1641.74 274.667 1647.08 280.117L1649.15 282.229C1652.64 285.79 1654.59 290.575 1654.59 295.558V295.849C1654.59 301.019 1652.56 305.983 1648.95 309.677L1620.32 338.909C1620.22 339.018 1620.04 339.018 1619.93 338.909Z" stroke="#E0E0E0" stroke-width="3.74566"/>
<path d="M1608.77 364.578L1607.47 351.561C1607.18 348.645 1605.65 345.994 1603.27 344.285L1586.38 332.163C1583.78 330.294 1580.19 330.706 1578.07 333.114V333.114M1608.77 364.578H1588.66M1608.77 364.578V364.578C1610.63 364.578 1612.14 366.087 1612.14 367.949V375.482C1612.14 376.631 1611.2 377.563 1610.06 377.563H1591.79C1588.2 377.563 1585.29 374.656 1585.29 371.071V367.949C1585.29 366.087 1586.8 364.578 1588.66 364.578V364.578M1586.92 343.977L1578.32 336.609C1577.28 335.716 1577.17 334.145 1578.07 333.114V333.114M1588.66 364.578L1587.91 362.854C1587.26 361.361 1586.26 360.047 1584.99 359.021L1570.21 347.037C1567.83 345.101 1566.44 342.192 1566.44 339.118V311.22C1566.44 309.659 1567.7 308.393 1569.27 308.393V308.393C1570.54 308.393 1571.66 309.252 1572 310.487L1578.07 333.114" stroke="#E0E0E0" stroke-width="3.74566" stroke-linecap="round"/>
<path d="M1631.49 364.578L1632.78 351.561C1633.07 348.645 1634.6 345.994 1636.98 344.285L1653.87 332.163C1656.47 330.294 1660.07 330.706 1662.18 333.114V333.114M1631.49 364.578H1651.59M1631.49 364.578V364.578C1629.63 364.578 1628.12 366.087 1628.12 367.949V375.482C1628.12 376.631 1629.05 377.563 1630.2 377.563H1648.47C1652.06 377.563 1654.96 374.656 1654.96 371.071V367.949C1654.96 366.087 1653.45 364.578 1651.59 364.578V364.578M1653.34 343.977L1661.94 336.609C1662.98 335.716 1663.09 334.145 1662.18 333.114V333.114M1651.59 364.578L1652.35 362.854C1653 361.361 1654 360.047 1655.27 359.021L1670.04 347.037C1672.43 345.101 1673.82 342.192 1673.82 339.118V311.22C1673.82 309.659 1672.55 308.393 1670.99 308.393V308.393C1669.71 308.393 1668.59 309.252 1668.26 310.487L1662.18 333.114" stroke="#E0E0E0" stroke-width="3.74566" stroke-linecap="round"/>
<path d="M1619.93 122.909L1591.69 94.061C1587.83 90.1208 1585.67 84.8258 1585.67 79.3114C1585.67 74.4862 1587.56 69.8531 1590.93 66.4055L1593.18 64.1171C1598.51 58.6671 1607.28 58.6671 1612.62 64.1171L1619.93 71.5853C1620.04 71.6943 1620.22 71.6943 1620.32 71.5853L1627.64 64.1171C1632.97 58.6671 1641.74 58.6671 1647.08 64.1171L1649.15 66.2293C1652.64 69.7899 1654.59 74.5747 1654.59 79.5579V79.849C1654.59 85.0189 1652.56 89.9829 1648.95 93.6768L1620.32 122.909C1620.22 123.018 1620.04 123.018 1619.93 122.909Z" stroke="#E0E0E0" stroke-width="3.74566"/>
<path d="M1608.77 148.578L1607.47 135.561C1607.18 132.645 1605.65 129.994 1603.27 128.285L1586.38 116.163C1583.78 114.294 1580.19 114.706 1578.07 117.114V117.114M1608.77 148.578H1588.66M1608.77 148.578V148.578C1610.63 148.578 1612.14 150.087 1612.14 151.949V159.482C1612.14 160.631 1611.2 161.563 1610.06 161.563H1591.79C1588.2 161.563 1585.29 158.656 1585.29 155.071V151.949C1585.29 150.087 1586.8 148.578 1588.66 148.578V148.578M1586.92 127.977L1578.32 120.609C1577.28 119.716 1577.17 118.145 1578.07 117.114V117.114M1588.66 148.578L1587.91 146.854C1587.26 145.361 1586.26 144.047 1584.99 143.021L1570.21 131.037C1567.83 129.101 1566.44 126.192 1566.44 123.118V95.2196C1566.44 93.6585 1567.7 92.3931 1569.27 92.3931V92.3931C1570.54 92.3931 1571.66 93.2516 1572 94.4866L1578.07 117.114" stroke="#E0E0E0" stroke-width="3.74566" stroke-linecap="round"/>
<path d="M1631.49 148.578L1632.78 135.561C1633.07 132.645 1634.6 129.994 1636.98 128.285L1653.87 116.163C1656.47 114.294 1660.07 114.706 1662.18 117.114V117.114M1631.49 148.578H1651.59M1631.49 148.578V148.578C1629.63 148.578 1628.12 150.087 1628.12 151.949V159.482C1628.12 160.631 1629.05 161.563 1630.2 161.563H1648.47C1652.06 161.563 1654.96 158.656 1654.96 155.071V151.949C1654.96 150.087 1653.45 148.578 1651.59 148.578V148.578M1653.34 127.977L1661.94 120.609C1662.98 119.716 1663.09 118.145 1662.18 117.114V117.114M1651.59 148.578L1652.35 146.854C1653 145.361 1654 144.047 1655.27 143.021L1670.04 131.037C1672.43 129.101 1673.82 126.192 1673.82 123.118V95.2196C1673.82 93.6585 1672.55 92.3931 1670.99 92.3931V92.3931C1669.71 92.3931 1668.59 93.2516 1668.26 94.4866L1662.18 117.114" stroke="#E0E0E0" stroke-width="3.74566" stroke-linecap="round"/>
<path d="M1619.93 554.909L1591.69 526.061C1587.83 522.121 1585.67 516.826 1585.67 511.311C1585.67 506.486 1587.56 501.853 1590.93 498.405L1593.18 496.117C1598.51 490.667 1607.28 490.667 1612.62 496.117L1619.93 503.585C1620.04 503.694 1620.22 503.694 1620.32 503.585L1627.64 496.117C1632.97 490.667 1641.74 490.667 1647.08 496.117L1649.15 498.229C1652.64 501.79 1654.59 506.575 1654.59 511.558V511.849C1654.59 517.019 1652.56 521.983 1648.95 525.677L1620.32 554.909C1620.22 555.018 1620.04 555.018 1619.93 554.909Z" stroke="#E0E0E0" stroke-width="3.74566"/>
<path d="M1608.77 580.578L1607.47 567.561C1607.18 564.645 1605.65 561.994 1603.27 560.285L1586.38 548.163C1583.78 546.294 1580.19 546.706 1578.07 549.114V549.114M1608.77 580.578H1588.66M1608.77 580.578V580.578C1610.63 580.578 1612.14 582.087 1612.14 583.949V591.482C1612.14 592.631 1611.2 593.563 1610.06 593.563H1591.79C1588.2 593.563 1585.29 590.656 1585.29 587.071V583.949C1585.29 582.087 1586.8 580.578 1588.66 580.578V580.578M1586.92 559.977L1578.32 552.609C1577.28 551.716 1577.17 550.145 1578.07 549.114V549.114M1588.66 580.578L1587.91 578.854C1587.26 577.361 1586.26 576.047 1584.99 575.021L1570.21 563.037C1567.83 561.101 1566.44 558.192 1566.44 555.118V527.22C1566.44 525.659 1567.7 524.393 1569.27 524.393V524.393C1570.54 524.393 1571.66 525.252 1572 526.487L1578.07 549.114" stroke="#E0E0E0" stroke-width="3.74566" stroke-linecap="round"/>
<path d="M1631.49 580.578L1632.78 567.561C1633.07 564.645 1634.6 561.994 1636.98 560.285L1653.87 548.163C1656.47 546.294 1660.07 546.706 1662.18 549.114V549.114M1631.49 580.578H1651.59M1631.49 580.578V580.578C1629.63 580.578 1628.12 582.087 1628.12 583.949V591.482C1628.12 592.631 1629.05 593.563 1630.2 593.563H1648.47C1652.06 593.563 1654.96 590.656 1654.96 587.071V583.949C1654.96 582.087 1653.45 580.578 1651.59 580.578V580.578M1653.34 559.977L1661.94 552.609C1662.98 551.716 1663.09 550.145 1662.18 549.114V549.114M1651.59 580.578L1652.35 578.854C1653 577.361 1654 576.047 1655.27 575.021L1670.04 563.037C1672.43 561.101 1673.82 558.192 1673.82 555.118V527.22C1673.82 525.659 1672.55 524.393 1670.99 524.393V524.393C1669.71 524.393 1668.59 525.252 1668.26 526.487L1662.18 549.114" stroke="#E0E0E0" stroke-width="3.74566" stroke-linecap="round"/>
<path d="M1619.93 770.909L1591.69 742.061C1587.83 738.121 1585.67 732.826 1585.67 727.311C1585.67 722.486 1587.56 717.853 1590.93 714.405L1593.18 712.117C1598.51 706.667 1607.28 706.667 1612.62 712.117L1619.93 719.585C1620.04 719.694 1620.22 719.694 1620.32 719.585L1627.64 712.117C1632.97 706.667 1641.74 706.667 1647.08 712.117L1649.15 714.229C1652.64 717.79 1654.59 722.575 1654.59 727.558V727.849C1654.59 733.019 1652.56 737.983 1648.95 741.677L1620.32 770.909C1620.22 771.018 1620.04 771.018 1619.93 770.909Z" stroke="#E0E0E0" stroke-width="3.74566"/>
<path d="M1608.77 796.578L1607.47 783.561C1607.18 780.645 1605.65 777.994 1603.27 776.285L1586.38 764.163C1583.78 762.294 1580.19 762.706 1578.07 765.114V765.114M1608.77 796.578H1588.66M1608.77 796.578V796.578C1610.63 796.578 1612.14 798.087 1612.14 799.949V807.482C1612.14 808.631 1611.2 809.563 1610.06 809.563H1591.79C1588.2 809.563 1585.29 806.656 1585.29 803.07V799.949C1585.29 798.087 1586.8 796.578 1588.66 796.578V796.578M1586.92 775.977L1578.32 768.609C1577.28 767.716 1577.17 766.145 1578.07 765.114V765.114M1588.66 796.578L1587.91 794.854C1587.26 793.361 1586.26 792.047 1584.99 791.021L1570.21 779.037C1567.83 777.101 1566.44 774.192 1566.44 771.118V743.219C1566.44 741.658 1567.7 740.393 1569.27 740.393V740.393C1570.54 740.393 1571.66 741.251 1572 742.486L1578.07 765.114" stroke="#E0E0E0" stroke-width="3.74566" stroke-linecap="round"/>
<path d="M1631.49 796.578L1632.78 783.561C1633.07 780.645 1634.6 777.994 1636.98 776.285L1653.87 764.163C1656.47 762.294 1660.07 762.706 1662.18 765.114V765.114M1631.49 796.578H1651.59M1631.49 796.578V796.578C1629.63 796.578 1628.12 798.087 1628.12 799.949V807.482C1628.12 808.631 1629.05 809.563 1630.2 809.563H1648.47C1652.06 809.563 1654.96 806.656 1654.96 803.07V799.949C1654.96 798.087 1653.45 796.578 1651.59 796.578V796.578M1653.34 775.977L1661.94 768.609C1662.98 767.716 1663.09 766.145 1662.18 765.114V765.114M1651.59 796.578L1652.35 794.854C1653 793.361 1654 792.047 1655.27 791.021L1670.04 779.037C1672.43 777.101 1673.82 774.192 1673.82 771.118V743.219C1673.82 741.658 1672.55 740.393 1670.99 740.393V740.393C1669.71 740.393 1668.59 741.251 1668.26 742.486L1662.18 765.114" stroke="#E0E0E0" stroke-width="3.74566" stroke-linecap="round"/>
<path d="M1619.93 986.909L1591.69 958.061C1587.83 954.121 1585.67 948.826 1585.67 943.311C1585.67 938.486 1587.56 933.853 1590.93 930.405L1593.18 928.117C1598.51 922.667 1607.28 922.667 1612.62 928.117L1619.93 935.585C1620.04 935.694 1620.22 935.694 1620.32 935.585L1627.64 928.117C1632.97 922.667 1641.74 922.667 1647.08 928.117L1649.15 930.229C1652.64 933.79 1654.59 938.575 1654.59 943.558V943.849C1654.59 949.019 1652.56 953.983 1648.95 957.677L1620.32 986.909C1620.22 987.018 1620.04 987.018 1619.93 986.909Z" stroke="#E0E0E0" stroke-width="3.74566"/>
<path d="M1608.77 1012.58L1607.47 999.561C1607.18 996.645 1605.65 993.994 1603.27 992.285L1586.38 980.163C1583.78 978.294 1580.19 978.706 1578.07 981.114V981.114M1608.77 1012.58H1588.66M1608.77 1012.58V1012.58C1610.63 1012.58 1612.14 1014.09 1612.14 1015.95V1023.48C1612.14 1024.63 1611.2 1025.56 1610.06 1025.56H1591.79C1588.2 1025.56 1585.29 1022.66 1585.29 1019.07V1015.95C1585.29 1014.09 1586.8 1012.58 1588.66 1012.58V1012.58M1586.92 991.977L1578.32 984.609C1577.28 983.716 1577.17 982.145 1578.07 981.114V981.114M1588.66 1012.58L1587.91 1010.85C1587.26 1009.36 1586.26 1008.05 1584.99 1007.02L1570.21 995.037C1567.83 993.101 1566.44 990.192 1566.44 987.118V959.219C1566.44 957.658 1567.7 956.393 1569.27 956.393V956.393C1570.54 956.393 1571.66 957.251 1572 958.486L1578.07 981.114" stroke="#E0E0E0" stroke-width="3.74566" stroke-linecap="round"/>
<path d="M1631.49 1012.58L1632.78 999.561C1633.07 996.645 1634.6 993.994 1636.98 992.285L1653.87 980.163C1656.47 978.294 1660.07 978.706 1662.18 981.114V981.114M1631.49 1012.58H1651.59M1631.49 1012.58V1012.58C1629.63 1012.58 1628.12 1014.09 1628.12 1015.95V1023.48C1628.12 1024.63 1629.05 1025.56 1630.2 1025.56H1648.47C1652.06 1025.56 1654.96 1022.66 1654.96 1019.07V1015.95C1654.96 1014.09 1653.45 1012.58 1651.59 1012.58V1012.58M1653.34 991.977L1661.94 984.609C1662.98 983.716 1663.09 982.145 1662.18 981.114V981.114M1651.59 1012.58L1652.35 1010.85C1653 1009.36 1654 1008.05 1655.27 1007.02L1670.04 995.037C1672.43 993.101 1673.82 990.192 1673.82 987.118V959.219C1673.82 957.658 1672.55 956.393 1670.99 956.393V956.393C1669.71 956.393 1668.59 957.251 1668.26 958.486L1662.18 981.114" stroke="#E0E0E0" stroke-width="3.74566" stroke-linecap="round"/>
</svg>
